<svg xmlns="http://www.w3.org/2000/svg" width="1200" height="560" viewBox="0 0 1200 560"><rect width="100%" height="100%" fill="white"/><line x1="85" y1="490" x2="980" y2="490" stroke="#222"/><line x1="85" y1="490" x2="85" y2="55" stroke="#222"/><line x1="85.0" y1="490" x2="85.0" y2="495" stroke="#555"/><text x="85.0" y="512" text-anchor="middle" font-size="11">0.10</text><line x1="80" y1="490.0" x2="85" y2="490.0" stroke="#555"/><text x="76" y="494.0" text-anchor="end" font-size="11">0.335</text><line x1="85" y1="490.0" x2="980" y2="490.0" stroke="#ddd" stroke-width="0.7"/><line x1="264.0" y1="490" x2="264.0" y2="495" stroke="#555"/><text x="264.0" y="512" text-anchor="middle" font-size="11">0.28</text><line x1="80" y1="403.0" x2="85" y2="403.0" stroke="#555"/><text x="76" y="407.0" text-anchor="end" font-size="11">0.466</text><line x1="85" y1="403.0" x2="980" y2="403.0" stroke="#ddd" stroke-width="0.7"/><line x1="443.0" y1="490" x2="443.0" y2="495" stroke="#555"/><text x="443.0" y="512" text-anchor="middle" font-size="11">0.46</text><line x1="80" y1="316.0" x2="85" y2="316.0" stroke="#555"/><text x="76" y="320.0" text-anchor="end" font-size="11">0.596</text><line x1="85" y1="316.0" x2="980" y2="316.0" stroke="#ddd" stroke-width="0.7"/><line x1="622.0" y1="490" x2="622.0" y2="495" stroke="#555"/><text x="622.0" y="512" text-anchor="middle" font-size="11">0.64</text><line x1="80" y1="229.0" x2="85" y2="229.0" stroke="#555"/><text x="76" y="233.0" text-anchor="end" font-size="11">0.727</text><line x1="85" y1="229.0" x2="980" y2="229.0" stroke="#ddd" stroke-width="0.7"/><line x1="801.0" y1="490" x2="801.0" y2="495" stroke="#555"/><text x="801.0" y="512" text-anchor="middle" font-size="11">0.82</text><line x1="80" y1="142.0" x2="85" y2="142.0" stroke="#555"/><text x="76" y="146.0" text-anchor="end" font-size="11">0.858</text><line x1="85" y1="142.0" x2="980" y2="142.0" stroke="#ddd" stroke-width="0.7"/><line x1="980.0" y1="490" x2="980.0" y2="495" stroke="#555"/><text x="980.0" y="512" text-anchor="middle" font-size="11">1.00</text><line x1="80" y1="55.0" x2="85" y2="55.0" stroke="#555"/><text x="76" y="59.0" text-anchor="end" font-size="11">0.989</text><line x1="85" y1="55.0" x2="980" y2="55.0" stroke="#ddd" stroke-width="0.7"/><polyline points="85.0,425.6 184.4,238.0 283.9,152.1 383.3,152.8 482.8,144.5 582.2,130.6 681.7,136.0 781.1,141.8 880.6,144.2 980.0,145.3" fill="none" stroke="#1f77b4" stroke-width="2"/><circle cx="85.0" cy="425.6" r="2.5" fill="#1f77b4"/><circle cx="184.4" cy="238.0" r="2.5" fill="#1f77b4"/><circle cx="283.9" cy="152.1" r="2.5" fill="#1f77b4"/><circle cx="383.3" cy="152.8" r="2.5" fill="#1f77b4"/><circle cx="482.8" cy="144.5" r="2.5" fill="#1f77b4"/><circle cx="582.2" cy="130.6" r="2.5" fill="#1f77b4"/><circle cx="681.7" cy="136.0" r="2.5" fill="#1f77b4"/><circle cx="781.1" cy="141.8" r="2.5" fill="#1f77b4"/><circle cx="880.6" cy="144.2" r="2.5" fill="#1f77b4"/><circle cx="980.0" cy="145.3" r="2.5" fill="#1f77b4"/><line x1="998" y1="75" x2="1022" y2="75" stroke="#1f77b4" stroke-width="3"/><text x="1028" y="79" font-size="10">p10_p10_freeze_q_power_t42_r42</text><polyline points="85.0,406.4 184.4,231.8 283.9,153.3 383.3,154.3 482.8,145.6 582.2,135.4 681.7,142.9 781.1,148.4 880.6,152.2 980.0,154.9" fill="none" stroke="#d62728" stroke-width="2"/><circle cx="85.0" cy="406.4" r="2.5" fill="#d62728"/><circle cx="184.4" cy="231.8" r="2.5" fill="#d62728"/><circle cx="283.9" cy="153.3" r="2.5" fill="#d62728"/><circle cx="383.3" cy="154.3" r="2.5" fill="#d62728"/><circle cx="482.8" cy="145.6" r="2.5" fill="#d62728"/><circle cx="582.2" cy="135.4" r="2.5" fill="#d62728"/><circle cx="681.7" cy="142.9" r="2.5" fill="#d62728"/><circle cx="781.1" cy="148.4" r="2.5" fill="#d62728"/><circle cx="880.6" cy="152.2" r="2.5" fill="#d62728"/><circle cx="980.0" cy="154.9" r="2.5" fill="#d62728"/><line x1="998" y1="95" x2="1022" y2="95" stroke="#d62728" stroke-width="3"/><text x="1028" y="99" font-size="10">p10_p10_freeze_effective_support_t42_r42</text><polyline points="85.0,395.4 184.4,225.8 283.9,154.4 383.3,154.3 482.8,147.0 582.2,143.1 681.7,145.1 781.1,145.9 880.6,146.4 980.0,146.8" fill="none" stroke="#2ca02c" stroke-width="2"/><circle cx="85.0" cy="395.4" r="2.5" fill="#2ca02c"/><circle cx="184.4" cy="225.8" r="2.5" fill="#2ca02c"/><circle cx="283.9" cy="154.4" r="2.5" fill="#2ca02c"/><circle cx="383.3" cy="154.3" r="2.5" fill="#2ca02c"/><circle cx="482.8" cy="147.0" r="2.5" fill="#2ca02c"/><circle cx="582.2" cy="143.1" r="2.5" fill="#2ca02c"/><circle cx="681.7" cy="145.1" r="2.5" fill="#2ca02c"/><circle cx="781.1" cy="145.9" r="2.5" fill="#2ca02c"/><circle cx="880.6" cy="146.4" r="2.5" fill="#2ca02c"/><circle cx="980.0" cy="146.8" r="2.5" fill="#2ca02c"/><line x1="998" y1="115" x2="1022" y2="115" stroke="#2ca02c" stroke-width="3"/><text x="1028" y="119" font-size="10">p10_p10_freeze_population_t42_r42</text><polyline points="85.0,460.0 184.4,262.1 283.9,156.5 383.3,166.5 482.8,153.5 582.2,85.0 681.7,109.9 781.1,138.0 880.6,159.4 980.0,186.4" fill="none" stroke="#9467bd" stroke-width="2"/><circle cx="85.0" cy="460.0" r="2.5" fill="#9467bd"/><circle cx="184.4" cy="262.1" r="2.5" fill="#9467bd"/><circle cx="283.9" cy="156.5" r="2.5" fill="#9467bd"/><circle cx="383.3" cy="166.5" r="2.5" fill="#9467bd"/><circle cx="482.8" cy="153.5" r="2.5" fill="#9467bd"/><circle cx="582.2" cy="85.0" r="2.5" fill="#9467bd"/><circle cx="681.7" cy="109.9" r="2.5" fill="#9467bd"/><circle cx="781.1" cy="138.0" r="2.5" fill="#9467bd"/><circle cx="880.6" cy="159.4" r="2.5" fill="#9467bd"/><circle cx="980.0" cy="186.4" r="2.5" fill="#9467bd"/><line x1="998" y1="135" x2="1022" y2="135" stroke="#9467bd" stroke-width="3"/><text x="1028" y="139" font-size="10">p10_freeze_conditional_t42_r42</text><text x="532.5" y="540" text-anchor="middle" font-size="14">Retained rank ratio</text><text x="20" y="272.5" transform="rotate(-90 20 272.5)" text-anchor="middle" font-size="14">Accuracy</text><text x="532.5" y="26" text-anchor="middle" font-size="17" font-weight="bold">Accuracy vs retained rank</text></svg>