<svg xmlns="http://www.w3.org/2000/svg" width="1200" height="560" viewBox="0 0 1200 560"><rect width="100%" height="100%" fill="white"/><line x1="85" y1="490" x2="980" y2="490" stroke="#222"/><line x1="85" y1="490" x2="85" y2="55" stroke="#222"/><line x1="85.0" y1="490" x2="85.0" y2="495" stroke="#555"/><text x="85.0" y="512" text-anchor="middle" font-size="11">0.10</text><line x1="80" y1="490.0" x2="85" y2="490.0" stroke="#555"/><text x="76" y="494.0" text-anchor="end" font-size="11">0.0809</text><line x1="85" y1="490.0" x2="980" y2="490.0" stroke="#ddd" stroke-width="0.7"/><line x1="264.0" y1="490" x2="264.0" y2="495" stroke="#555"/><text x="264.0" y="512" text-anchor="middle" font-size="11">0.28</text><line x1="80" y1="403.0" x2="85" y2="403.0" stroke="#555"/><text x="76" y="407.0" text-anchor="end" font-size="11">0.458</text><line x1="85" y1="403.0" x2="980" y2="403.0" stroke="#ddd" stroke-width="0.7"/><line x1="443.0" y1="490" x2="443.0" y2="495" stroke="#555"/><text x="443.0" y="512" text-anchor="middle" font-size="11">0.46</text><line x1="80" y1="316.0" x2="85" y2="316.0" stroke="#555"/><text x="76" y="320.0" text-anchor="end" font-size="11">0.836</text><line x1="85" y1="316.0" x2="980" y2="316.0" stroke="#ddd" stroke-width="0.7"/><line x1="622.0" y1="490" x2="622.0" y2="495" stroke="#555"/><text x="622.0" y="512" text-anchor="middle" font-size="11">0.64</text><line x1="80" y1="229.0" x2="85" y2="229.0" stroke="#555"/><text x="76" y="233.0" text-anchor="end" font-size="11">1.21</text><line x1="85" y1="229.0" x2="980" y2="229.0" stroke="#ddd" stroke-width="0.7"/><line x1="801.0" y1="490" x2="801.0" y2="495" stroke="#555"/><text x="801.0" y="512" text-anchor="middle" font-size="11">0.82</text><line x1="80" y1="142.0" x2="85" y2="142.0" stroke="#555"/><text x="76" y="146.0" text-anchor="end" font-size="11">1.59</text><line x1="85" y1="142.0" x2="980" y2="142.0" stroke="#ddd" stroke-width="0.7"/><line x1="980.0" y1="490" x2="980.0" y2="495" stroke="#555"/><text x="980.0" y="512" text-anchor="middle" font-size="11">1.00</text><line x1="80" y1="55.0" x2="85" y2="55.0" stroke="#555"/><text x="76" y="59.0" text-anchor="end" font-size="11">1.97</text><line x1="85" y1="55.0" x2="980" y2="55.0" stroke="#ddd" stroke-width="0.7"/><polyline points="85.0,85.0 184.4,292.8 283.9,353.7 383.3,373.0 482.8,393.9 582.2,419.2 681.7,410.1 781.1,398.7 880.6,394.0 980.0,390.4" fill="none" stroke="#1f77b4" stroke-width="2"/><circle cx="85.0" cy="85.0" r="2.5" fill="#1f77b4"/><circle cx="184.4" cy="292.8" r="2.5" fill="#1f77b4"/><circle cx="283.9" cy="353.7" r="2.5" fill="#1f77b4"/><circle cx="383.3" cy="373.0" r="2.5" fill="#1f77b4"/><circle cx="482.8" cy="393.9" r="2.5" fill="#1f77b4"/><circle cx="582.2" cy="419.2" r="2.5" fill="#1f77b4"/><circle cx="681.7" cy="410.1" r="2.5" fill="#1f77b4"/><circle cx="781.1" cy="398.7" r="2.5" fill="#1f77b4"/><circle cx="880.6" cy="394.0" r="2.5" fill="#1f77b4"/><circle cx="980.0" cy="390.4" r="2.5" fill="#1f77b4"/><line x1="998" y1="75" x2="1022" y2="75" stroke="#1f77b4" stroke-width="3"/><text x="1028" y="79" font-size="10">p10_p10_freeze_q_power_t42_r42</text><polyline points="85.0,94.2 184.4,298.5 283.9,356.1 383.3,376.2 482.8,394.3 582.2,415.1 681.7,400.6 781.1,383.9 880.6,374.0 980.0,367.5" fill="none" stroke="#d62728" stroke-width="2"/><circle cx="85.0" cy="94.2" r="2.5" fill="#d62728"/><circle cx="184.4" cy="298.5" r="2.5" fill="#d62728"/><circle cx="283.9" cy="356.1" r="2.5" fill="#d62728"/><circle cx="383.3" cy="376.2" r="2.5" fill="#d62728"/><circle cx="482.8" cy="394.3" r="2.5" fill="#d62728"/><circle cx="582.2" cy="415.1" r="2.5" fill="#d62728"/><circle cx="681.7" cy="400.6" r="2.5" fill="#d62728"/><circle cx="781.1" cy="383.9" r="2.5" fill="#d62728"/><circle cx="880.6" cy="374.0" r="2.5" fill="#d62728"/><circle cx="980.0" cy="367.5" r="2.5" fill="#d62728"/><line x1="998" y1="95" x2="1022" y2="95" stroke="#d62728" stroke-width="3"/><text x="1028" y="99" font-size="10">p10_p10_freeze_effective_support_t42_r42</text><polyline points="85.0,97.1 184.4,301.2 283.9,360.0 383.3,372.3 482.8,385.8 582.2,398.6 681.7,394.5 781.1,389.6 880.6,388.3 980.0,387.3" fill="none" stroke="#2ca02c" stroke-width="2"/><circle cx="85.0" cy="97.1" r="2.5" fill="#2ca02c"/><circle cx="184.4" cy="301.2" r="2.5" fill="#2ca02c"/><circle cx="283.9" cy="360.0" r="2.5" fill="#2ca02c"/><circle cx="383.3" cy="372.3" r="2.5" fill="#2ca02c"/><circle cx="482.8" cy="385.8" r="2.5" fill="#2ca02c"/><circle cx="582.2" cy="398.6" r="2.5" fill="#2ca02c"/><circle cx="681.7" cy="394.5" r="2.5" fill="#2ca02c"/><circle cx="781.1" cy="389.6" r="2.5" fill="#2ca02c"/><circle cx="880.6" cy="388.3" r="2.5" fill="#2ca02c"/><circle cx="980.0" cy="387.3" r="2.5" fill="#2ca02c"/><line x1="998" y1="115" x2="1022" y2="115" stroke="#2ca02c" stroke-width="3"/><text x="1028" y="119" font-size="10">p10_p10_freeze_population_t42_r42</text><polyline points="85.0,88.3 184.4,261.9 283.9,333.6 383.3,355.3 482.8,377.4 582.2,460.0 681.7,429.2 781.1,381.0 880.6,325.2 980.0,221.5" fill="none" stroke="#9467bd" stroke-width="2"/><circle cx="85.0" cy="88.3" r="2.5" fill="#9467bd"/><circle cx="184.4" cy="261.9" r="2.5" fill="#9467bd"/><circle cx="283.9" cy="333.6" r="2.5" fill="#9467bd"/><circle cx="383.3" cy="355.3" r="2.5" fill="#9467bd"/><circle cx="482.8" cy="377.4" r="2.5" fill="#9467bd"/><circle cx="582.2" cy="460.0" r="2.5" fill="#9467bd"/><circle cx="681.7" cy="429.2" r="2.5" fill="#9467bd"/><circle cx="781.1" cy="381.0" r="2.5" fill="#9467bd"/><circle cx="880.6" cy="325.2" r="2.5" fill="#9467bd"/><circle cx="980.0" cy="221.5" r="2.5" fill="#9467bd"/><line x1="998" y1="135" x2="1022" y2="135" stroke="#9467bd" stroke-width="3"/><text x="1028" y="139" font-size="10">p10_freeze_conditional_t42_r42</text><text x="532.5" y="540" text-anchor="middle" font-size="14">Retained rank ratio</text><text x="20" y="272.5" transform="rotate(-90 20 272.5)" text-anchor="middle" font-size="14">Average loss</text><text x="532.5" y="26" text-anchor="middle" font-size="17" font-weight="bold">Average loss vs retained rank</text></svg>