<svg xmlns="http://www.w3.org/2000/svg" width="1200" height="560" viewBox="0 0 1200 560"><rect width="100%" height="100%" fill="white"/><line x1="85" y1="490" x2="980" y2="490" stroke="#222"/><line x1="85" y1="490" x2="85" y2="55" stroke="#222"/><line x1="85.0" y1="490" x2="85.0" y2="495" stroke="#555"/><text x="85.0" y="512" text-anchor="middle" font-size="11">0.10</text><line x1="80" y1="490.0" x2="85" y2="490.0" stroke="#555"/><text x="76" y="494.0" text-anchor="end" font-size="11">0.672</text><line x1="85" y1="490.0" x2="980" y2="490.0" stroke="#ddd" stroke-width="0.7"/><line x1="264.0" y1="490" x2="264.0" y2="495" stroke="#555"/><text x="264.0" y="512" text-anchor="middle" font-size="11">0.28</text><line x1="80" y1="403.0" x2="85" y2="403.0" stroke="#555"/><text x="76" y="407.0" text-anchor="end" font-size="11">1.45</text><line x1="85" y1="403.0" x2="980" y2="403.0" stroke="#ddd" stroke-width="0.7"/><line x1="443.0" y1="490" x2="443.0" y2="495" stroke="#555"/><text x="443.0" y="512" text-anchor="middle" font-size="11">0.46</text><line x1="80" y1="316.0" x2="85" y2="316.0" stroke="#555"/><text x="76" y="320.0" text-anchor="end" font-size="11">2.23</text><line x1="85" y1="316.0" x2="980" y2="316.0" stroke="#ddd" stroke-width="0.7"/><line x1="622.0" y1="490" x2="622.0" y2="495" stroke="#555"/><text x="622.0" y="512" text-anchor="middle" font-size="11">0.64</text><line x1="80" y1="229.0" x2="85" y2="229.0" stroke="#555"/><text x="76" y="233.0" text-anchor="end" font-size="11">3</text><line x1="85" y1="229.0" x2="980" y2="229.0" stroke="#ddd" stroke-width="0.7"/><line x1="801.0" y1="490" x2="801.0" y2="495" stroke="#555"/><text x="801.0" y="512" text-anchor="middle" font-size="11">0.82</text><line x1="80" y1="142.0" x2="85" y2="142.0" stroke="#555"/><text x="76" y="146.0" text-anchor="end" font-size="11">3.78</text><line x1="85" y1="142.0" x2="980" y2="142.0" stroke="#ddd" stroke-width="0.7"/><line x1="980.0" y1="490" x2="980.0" y2="495" stroke="#555"/><text x="980.0" y="512" text-anchor="middle" font-size="11">1.00</text><line x1="80" y1="55.0" x2="85" y2="55.0" stroke="#555"/><text x="76" y="59.0" text-anchor="end" font-size="11">4.55</text><line x1="85" y1="55.0" x2="980" y2="55.0" stroke="#ddd" stroke-width="0.7"/><polyline points="85.0,237.4 184.4,353.4 283.9,386.9 383.3,403.1 482.8,413.7 582.2,423.9 681.7,430.6 781.1,433.2 880.6,434.5 980.0,435.5" fill="none" stroke="#1f77b4" stroke-width="2"/><circle cx="85.0" cy="237.4" r="2.5" fill="#1f77b4"/><circle cx="184.4" cy="353.4" r="2.5" fill="#1f77b4"/><circle cx="283.9" cy="386.9" r="2.5" fill="#1f77b4"/><circle cx="383.3" cy="403.1" r="2.5" fill="#1f77b4"/><circle cx="482.8" cy="413.7" r="2.5" fill="#1f77b4"/><circle cx="582.2" cy="423.9" r="2.5" fill="#1f77b4"/><circle cx="681.7" cy="430.6" r="2.5" fill="#1f77b4"/><circle cx="781.1" cy="433.2" r="2.5" fill="#1f77b4"/><circle cx="880.6" cy="434.5" r="2.5" fill="#1f77b4"/><circle cx="980.0" cy="435.5" r="2.5" fill="#1f77b4"/><line x1="998" y1="75" x2="1022" y2="75" stroke="#1f77b4" stroke-width="3"/><text x="1028" y="79" font-size="10">p9_p9_freeze_population_t42_r43</text><polyline points="85.0,193.8 184.4,356.1 283.9,385.1 383.3,417.7 482.8,430.7 582.2,436.4 681.7,440.5 781.1,441.7 880.6,442.1 980.0,442.2" fill="none" stroke="#d62728" stroke-width="2"/><circle cx="85.0" cy="193.8" r="2.5" fill="#d62728"/><circle cx="184.4" cy="356.1" r="2.5" fill="#d62728"/><circle cx="283.9" cy="385.1" r="2.5" fill="#d62728"/><circle cx="383.3" cy="417.7" r="2.5" fill="#d62728"/><circle cx="482.8" cy="430.7" r="2.5" fill="#d62728"/><circle cx="582.2" cy="436.4" r="2.5" fill="#d62728"/><circle cx="681.7" cy="440.5" r="2.5" fill="#d62728"/><circle cx="781.1" cy="441.7" r="2.5" fill="#d62728"/><circle cx="880.6" cy="442.1" r="2.5" fill="#d62728"/><circle cx="980.0" cy="442.2" r="2.5" fill="#d62728"/><line x1="998" y1="95" x2="1022" y2="95" stroke="#d62728" stroke-width="3"/><text x="1028" y="99" font-size="10">p9_p9_freeze_population_t42_r44</text><polyline points="85.0,168.3 184.4,351.1 283.9,401.5 383.3,420.8 482.8,429.0 582.2,432.2 681.7,434.9 781.1,436.5 880.6,437.5 980.0,438.3" fill="none" stroke="#2ca02c" stroke-width="2"/><circle cx="85.0" cy="168.3" r="2.5" fill="#2ca02c"/><circle cx="184.4" cy="351.1" r="2.5" fill="#2ca02c"/><circle cx="283.9" cy="401.5" r="2.5" fill="#2ca02c"/><circle cx="383.3" cy="420.8" r="2.5" fill="#2ca02c"/><circle cx="482.8" cy="429.0" r="2.5" fill="#2ca02c"/><circle cx="582.2" cy="432.2" r="2.5" fill="#2ca02c"/><circle cx="681.7" cy="434.9" r="2.5" fill="#2ca02c"/><circle cx="781.1" cy="436.5" r="2.5" fill="#2ca02c"/><circle cx="880.6" cy="437.5" r="2.5" fill="#2ca02c"/><circle cx="980.0" cy="438.3" r="2.5" fill="#2ca02c"/><line x1="998" y1="115" x2="1022" y2="115" stroke="#2ca02c" stroke-width="3"/><text x="1028" y="119" font-size="10">p9_p9_freeze_population_t43_r42</text><polyline points="85.0,171.4 184.4,341.7 283.9,382.0 383.3,398.6 482.8,407.7 582.2,418.8 681.7,426.7 781.1,429.9 880.6,431.6 980.0,432.4" fill="none" stroke="#9467bd" stroke-width="2"/><circle cx="85.0" cy="171.4" r="2.5" fill="#9467bd"/><circle cx="184.4" cy="341.7" r="2.5" fill="#9467bd"/><circle cx="283.9" cy="382.0" r="2.5" fill="#9467bd"/><circle cx="383.3" cy="398.6" r="2.5" fill="#9467bd"/><circle cx="482.8" cy="407.7" r="2.5" fill="#9467bd"/><circle cx="582.2" cy="418.8" r="2.5" fill="#9467bd"/><circle cx="681.7" cy="426.7" r="2.5" fill="#9467bd"/><circle cx="781.1" cy="429.9" r="2.5" fill="#9467bd"/><circle cx="880.6" cy="431.6" r="2.5" fill="#9467bd"/><circle cx="980.0" cy="432.4" r="2.5" fill="#9467bd"/><line x1="998" y1="135" x2="1022" y2="135" stroke="#9467bd" stroke-width="3"/><text x="1028" y="139" font-size="10">p9_p9_freeze_population_t43_r43</text><polyline points="85.0,113.6 184.4,302.9 283.9,376.9 383.3,415.2 482.8,427.8 582.2,433.1 681.7,437.4 781.1,438.6 880.6,439.2 980.0,439.5" fill="none" stroke="#ff7f0e" stroke-width="2"/><circle cx="85.0" cy="113.6" r="2.5" fill="#ff7f0e"/><circle cx="184.4" cy="302.9" r="2.5" fill="#ff7f0e"/><circle cx="283.9" cy="376.9" r="2.5" fill="#ff7f0e"/><circle cx="383.3" cy="415.2" r="2.5" fill="#ff7f0e"/><circle cx="482.8" cy="427.8" r="2.5" fill="#ff7f0e"/><circle cx="582.2" cy="433.1" r="2.5" fill="#ff7f0e"/><circle cx="681.7" cy="437.4" r="2.5" fill="#ff7f0e"/><circle cx="781.1" cy="438.6" r="2.5" fill="#ff7f0e"/><circle cx="880.6" cy="439.2" r="2.5" fill="#ff7f0e"/><circle cx="980.0" cy="439.5" r="2.5" fill="#ff7f0e"/><line x1="998" y1="155" x2="1022" y2="155" stroke="#ff7f0e" stroke-width="3"/><text x="1028" y="159" font-size="10">p9_p9_freeze_population_t43_r44</text><polyline points="85.0,184.1 184.4,350.0 283.9,399.2 383.3,420.3 482.8,428.5 582.2,430.9 681.7,432.3 781.1,434.3 880.6,435.0 980.0,435.0" fill="none" stroke="#17becf" stroke-width="2"/><circle cx="85.0" cy="184.1" r="2.5" fill="#17becf"/><circle cx="184.4" cy="350.0" r="2.5" fill="#17becf"/><circle cx="283.9" cy="399.2" r="2.5" fill="#17becf"/><circle cx="383.3" cy="420.3" r="2.5" fill="#17becf"/><circle cx="482.8" cy="428.5" r="2.5" fill="#17becf"/><circle cx="582.2" cy="430.9" r="2.5" fill="#17becf"/><circle cx="681.7" cy="432.3" r="2.5" fill="#17becf"/><circle cx="781.1" cy="434.3" r="2.5" fill="#17becf"/><circle cx="880.6" cy="435.0" r="2.5" fill="#17becf"/><circle cx="980.0" cy="435.0" r="2.5" fill="#17becf"/><line x1="998" y1="175" x2="1022" y2="175" stroke="#17becf" stroke-width="3"/><text x="1028" y="179" font-size="10">p9_p9_freeze_population_t44_r42</text><polyline points="85.0,230.1 184.4,356.2 283.9,390.2 383.3,406.0 482.8,416.4 582.2,424.2 681.7,427.9 781.1,429.4 880.6,430.4 980.0,430.8" fill="none" stroke="#8c564b" stroke-width="2"/><circle cx="85.0" cy="230.1" r="2.5" fill="#8c564b"/><circle cx="184.4" cy="356.2" r="2.5" fill="#8c564b"/><circle cx="283.9" cy="390.2" r="2.5" fill="#8c564b"/><circle cx="383.3" cy="406.0" r="2.5" fill="#8c564b"/><circle cx="482.8" cy="416.4" r="2.5" fill="#8c564b"/><circle cx="582.2" cy="424.2" r="2.5" fill="#8c564b"/><circle cx="681.7" cy="427.9" r="2.5" fill="#8c564b"/><circle cx="781.1" cy="429.4" r="2.5" fill="#8c564b"/><circle cx="880.6" cy="430.4" r="2.5" fill="#8c564b"/><circle cx="980.0" cy="430.8" r="2.5" fill="#8c564b"/><line x1="998" y1="195" x2="1022" y2="195" stroke="#8c564b" stroke-width="3"/><text x="1028" y="199" font-size="10">p9_p9_freeze_population_t44_r43</text><polyline points="85.0,163.6 184.4,328.8 283.9,378.1 383.3,408.8 482.8,422.6 582.2,428.3 681.7,432.7 781.1,434.2 880.6,434.2 980.0,433.9" fill="none" stroke="#e377c2" stroke-width="2"/><circle cx="85.0" cy="163.6" r="2.5" fill="#e377c2"/><circle cx="184.4" cy="328.8" r="2.5" fill="#e377c2"/><circle cx="283.9" cy="378.1" r="2.5" fill="#e377c2"/><circle cx="383.3" cy="408.8" r="2.5" fill="#e377c2"/><circle cx="482.8" cy="422.6" r="2.5" fill="#e377c2"/><circle cx="582.2" cy="428.3" r="2.5" fill="#e377c2"/><circle cx="681.7" cy="432.7" r="2.5" fill="#e377c2"/><circle cx="781.1" cy="434.2" r="2.5" fill="#e377c2"/><circle cx="880.6" cy="434.2" r="2.5" fill="#e377c2"/><circle cx="980.0" cy="433.9" r="2.5" fill="#e377c2"/><line x1="998" y1="215" x2="1022" y2="215" stroke="#e377c2" stroke-width="3"/><text x="1028" y="219" font-size="10">p9_p9_freeze_population_t44_r44</text><polyline points="85.0,188.3 184.4,356.0 283.9,407.9 383.3,435.5 482.8,445.3 582.2,449.2 681.7,454.0 781.1,457.8 880.6,460.0 980.0,456.6" fill="none" stroke="#7f7f7f" stroke-width="2"/><circle cx="85.0" cy="188.3" r="2.5" fill="#7f7f7f"/><circle cx="184.4" cy="356.0" r="2.5" fill="#7f7f7f"/><circle cx="283.9" cy="407.9" r="2.5" fill="#7f7f7f"/><circle cx="383.3" cy="435.5" r="2.5" fill="#7f7f7f"/><circle cx="482.8" cy="445.3" r="2.5" fill="#7f7f7f"/><circle cx="582.2" cy="449.2" r="2.5" fill="#7f7f7f"/><circle cx="681.7" cy="454.0" r="2.5" fill="#7f7f7f"/><circle cx="781.1" cy="457.8" r="2.5" fill="#7f7f7f"/><circle cx="880.6" cy="460.0" r="2.5" fill="#7f7f7f"/><circle cx="980.0" cy="456.6" r="2.5" fill="#7f7f7f"/><line x1="998" y1="235" x2="1022" y2="235" stroke="#7f7f7f" stroke-width="3"/><text x="1028" y="239" font-size="10">p9_freeze_q_power_t42_r42</text><polyline points="85.0,197.9 184.4,323.3 283.9,372.2 383.3,393.4 482.8,415.5 582.2,436.0 681.7,446.5 781.1,450.1 880.6,451.1 980.0,448.7" fill="none" stroke="#bcbd22" stroke-width="2"/><circle cx="85.0" cy="197.9" r="2.5" fill="#bcbd22"/><circle cx="184.4" cy="323.3" r="2.5" fill="#bcbd22"/><circle cx="283.9" cy="372.2" r="2.5" fill="#bcbd22"/><circle cx="383.3" cy="393.4" r="2.5" fill="#bcbd22"/><circle cx="482.8" cy="415.5" r="2.5" fill="#bcbd22"/><circle cx="582.2" cy="436.0" r="2.5" fill="#bcbd22"/><circle cx="681.7" cy="446.5" r="2.5" fill="#bcbd22"/><circle cx="781.1" cy="450.1" r="2.5" fill="#bcbd22"/><circle cx="880.6" cy="451.1" r="2.5" fill="#bcbd22"/><circle cx="980.0" cy="448.7" r="2.5" fill="#bcbd22"/><line x1="998" y1="255" x2="1022" y2="255" stroke="#bcbd22" stroke-width="3"/><text x="1028" y="259" font-size="10">p9_freeze_q_power_t42_r43</text><polyline points="85.0,152.1 184.4,328.7 283.9,365.6 383.3,421.7 482.8,439.8 582.2,447.7 681.7,452.9 781.1,451.7 880.6,450.9 980.0,448.6" fill="none" stroke="#1f77b4" stroke-width="2"/><circle cx="85.0" cy="152.1" r="2.5" fill="#1f77b4"/><circle cx="184.4" cy="328.7" r="2.5" fill="#1f77b4"/><circle cx="283.9" cy="365.6" r="2.5" fill="#1f77b4"/><circle cx="383.3" cy="421.7" r="2.5" fill="#1f77b4"/><circle cx="482.8" cy="439.8" r="2.5" fill="#1f77b4"/><circle cx="582.2" cy="447.7" r="2.5" fill="#1f77b4"/><circle cx="681.7" cy="452.9" r="2.5" fill="#1f77b4"/><circle cx="781.1" cy="451.7" r="2.5" fill="#1f77b4"/><circle cx="880.6" cy="450.9" r="2.5" fill="#1f77b4"/><circle cx="980.0" cy="448.6" r="2.5" fill="#1f77b4"/><line x1="998" y1="275" x2="1022" y2="275" stroke="#1f77b4" stroke-width="3"/><text x="1028" y="279" font-size="10">p9_freeze_q_power_t42_r44</text><polyline points="85.0,141.3 184.4,335.0 283.9,399.1 383.3,429.3 482.8,441.2 582.2,445.5 681.7,452.8 781.1,456.5 880.6,458.9 980.0,458.1" fill="none" stroke="#d62728" stroke-width="2"/><circle cx="85.0" cy="141.3" r="2.5" fill="#d62728"/><circle cx="184.4" cy="335.0" r="2.5" fill="#d62728"/><circle cx="283.9" cy="399.1" r="2.5" fill="#d62728"/><circle cx="383.3" cy="429.3" r="2.5" fill="#d62728"/><circle cx="482.8" cy="441.2" r="2.5" fill="#d62728"/><circle cx="582.2" cy="445.5" r="2.5" fill="#d62728"/><circle cx="681.7" cy="452.8" r="2.5" fill="#d62728"/><circle cx="781.1" cy="456.5" r="2.5" fill="#d62728"/><circle cx="880.6" cy="458.9" r="2.5" fill="#d62728"/><circle cx="980.0" cy="458.1" r="2.5" fill="#d62728"/><line x1="998" y1="295" x2="1022" y2="295" stroke="#d62728" stroke-width="3"/><text x="1028" y="299" font-size="10">p9_freeze_q_power_t43_r42</text><polyline points="85.0,144.3 184.4,313.7 283.9,363.0 383.3,390.4 482.8,407.4 582.2,430.0 681.7,442.9 781.1,446.3 880.6,448.4 980.0,443.7" fill="none" stroke="#2ca02c" stroke-width="2"/><circle cx="85.0" cy="144.3" r="2.5" fill="#2ca02c"/><circle cx="184.4" cy="313.7" r="2.5" fill="#2ca02c"/><circle cx="283.9" cy="363.0" r="2.5" fill="#2ca02c"/><circle cx="383.3" cy="390.4" r="2.5" fill="#2ca02c"/><circle cx="482.8" cy="407.4" r="2.5" fill="#2ca02c"/><circle cx="582.2" cy="430.0" r="2.5" fill="#2ca02c"/><circle cx="681.7" cy="442.9" r="2.5" fill="#2ca02c"/><circle cx="781.1" cy="446.3" r="2.5" fill="#2ca02c"/><circle cx="880.6" cy="448.4" r="2.5" fill="#2ca02c"/><circle cx="980.0" cy="443.7" r="2.5" fill="#2ca02c"/><line x1="998" y1="315" x2="1022" y2="315" stroke="#2ca02c" stroke-width="3"/><text x="1028" y="319" font-size="10">p9_freeze_q_power_t43_r43</text><polyline points="85.0,85.0 184.4,265.2 283.9,361.9 383.3,424.6 482.8,440.7 582.2,446.6 681.7,450.5 781.1,451.5 880.6,450.6 980.0,449.2" fill="none" stroke="#9467bd" stroke-width="2"/><circle cx="85.0" cy="85.0" r="2.5" fill="#9467bd"/><circle cx="184.4" cy="265.2" r="2.5" fill="#9467bd"/><circle cx="283.9" cy="361.9" r="2.5" fill="#9467bd"/><circle cx="383.3" cy="424.6" r="2.5" fill="#9467bd"/><circle cx="482.8" cy="440.7" r="2.5" fill="#9467bd"/><circle cx="582.2" cy="446.6" r="2.5" fill="#9467bd"/><circle cx="681.7" cy="450.5" r="2.5" fill="#9467bd"/><circle cx="781.1" cy="451.5" r="2.5" fill="#9467bd"/><circle cx="880.6" cy="450.6" r="2.5" fill="#9467bd"/><circle cx="980.0" cy="449.2" r="2.5" fill="#9467bd"/><line x1="998" y1="335" x2="1022" y2="335" stroke="#9467bd" stroke-width="3"/><text x="1028" y="339" font-size="10">p9_freeze_q_power_t43_r44</text><polyline points="85.0,153.2 184.4,324.1 283.9,395.6 383.3,429.1 482.8,440.8 582.2,445.0 681.7,449.5 781.1,453.5 880.6,455.5 980.0,451.9" fill="none" stroke="#ff7f0e" stroke-width="2"/><circle cx="85.0" cy="153.2" r="2.5" fill="#ff7f0e"/><circle cx="184.4" cy="324.1" r="2.5" fill="#ff7f0e"/><circle cx="283.9" cy="395.6" r="2.5" fill="#ff7f0e"/><circle cx="383.3" cy="429.1" r="2.5" fill="#ff7f0e"/><circle cx="482.8" cy="440.8" r="2.5" fill="#ff7f0e"/><circle cx="582.2" cy="445.0" r="2.5" fill="#ff7f0e"/><circle cx="681.7" cy="449.5" r="2.5" fill="#ff7f0e"/><circle cx="781.1" cy="453.5" r="2.5" fill="#ff7f0e"/><circle cx="880.6" cy="455.5" r="2.5" fill="#ff7f0e"/><circle cx="980.0" cy="451.9" r="2.5" fill="#ff7f0e"/><line x1="998" y1="355" x2="1022" y2="355" stroke="#ff7f0e" stroke-width="3"/><text x="1028" y="359" font-size="10">p9_freeze_q_power_t44_r42</text><polyline points="85.0,193.9 184.4,321.5 283.9,368.6 383.3,398.4 482.8,422.6 582.2,436.4 681.7,439.7 781.1,436.8 880.6,435.8 980.0,427.8" fill="none" stroke="#17becf" stroke-width="2"/><circle cx="85.0" cy="193.9" r="2.5" fill="#17becf"/><circle cx="184.4" cy="321.5" r="2.5" fill="#17becf"/><circle cx="283.9" cy="368.6" r="2.5" fill="#17becf"/><circle cx="383.3" cy="398.4" r="2.5" fill="#17becf"/><circle cx="482.8" cy="422.6" r="2.5" fill="#17becf"/><circle cx="582.2" cy="436.4" r="2.5" fill="#17becf"/><circle cx="681.7" cy="439.7" r="2.5" fill="#17becf"/><circle cx="781.1" cy="436.8" r="2.5" fill="#17becf"/><circle cx="880.6" cy="435.8" r="2.5" fill="#17becf"/><circle cx="980.0" cy="427.8" r="2.5" fill="#17becf"/><line x1="998" y1="375" x2="1022" y2="375" stroke="#17becf" stroke-width="3"/><text x="1028" y="379" font-size="10">p9_freeze_q_power_t44_r43</text><polyline points="85.0,146.8 184.4,296.6 283.9,361.5 383.3,416.0 482.8,436.5 582.2,445.5 681.7,450.3 781.1,450.5 880.6,449.4 980.0,444.9" fill="none" stroke="#8c564b" stroke-width="2"/><circle cx="85.0" cy="146.8" r="2.5" fill="#8c564b"/><circle cx="184.4" cy="296.6" r="2.5" fill="#8c564b"/><circle cx="283.9" cy="361.5" r="2.5" fill="#8c564b"/><circle cx="383.3" cy="416.0" r="2.5" fill="#8c564b"/><circle cx="482.8" cy="436.5" r="2.5" fill="#8c564b"/><circle cx="582.2" cy="445.5" r="2.5" fill="#8c564b"/><circle cx="681.7" cy="450.3" r="2.5" fill="#8c564b"/><circle cx="781.1" cy="450.5" r="2.5" fill="#8c564b"/><circle cx="880.6" cy="449.4" r="2.5" fill="#8c564b"/><circle cx="980.0" cy="444.9" r="2.5" fill="#8c564b"/><line x1="998" y1="395" x2="1022" y2="395" stroke="#8c564b" stroke-width="3"/><text x="1028" y="399" font-size="10">p9_freeze_q_power_t44_r44</text><polyline points="85.0,231.2 184.4,381.5 283.9,417.7 383.3,433.3 482.8,438.8 582.2,441.0 681.7,442.4 781.1,444.1 880.6,445.2 980.0,445.0" fill="none" stroke="#e377c2" stroke-width="2"/><circle cx="85.0" cy="231.2" r="2.5" fill="#e377c2"/><circle cx="184.4" cy="381.5" r="2.5" fill="#e377c2"/><circle cx="283.9" cy="417.7" r="2.5" fill="#e377c2"/><circle cx="383.3" cy="433.3" r="2.5" fill="#e377c2"/><circle cx="482.8" cy="438.8" r="2.5" fill="#e377c2"/><circle cx="582.2" cy="441.0" r="2.5" fill="#e377c2"/><circle cx="681.7" cy="442.4" r="2.5" fill="#e377c2"/><circle cx="781.1" cy="444.1" r="2.5" fill="#e377c2"/><circle cx="880.6" cy="445.2" r="2.5" fill="#e377c2"/><circle cx="980.0" cy="445.0" r="2.5" fill="#e377c2"/><line x1="998" y1="415" x2="1022" y2="415" stroke="#e377c2" stroke-width="3"/><text x="1028" y="419" font-size="10">p9_freeze_population_t42_r42</text><text x="532.5" y="540" text-anchor="middle" font-size="14">Retained rank ratio</text><text x="20" y="272.5" transform="rotate(-90 20 272.5)" text-anchor="middle" font-size="14">Average loss</text><text x="532.5" y="26" text-anchor="middle" font-size="17" font-weight="bold">Average loss vs retained rank</text></svg>