<svg xmlns="http://www.w3.org/2000/svg" width="1200" height="560" viewBox="0 0 1200 560"><rect width="100%" height="100%" fill="white"/><line x1="85" y1="490" x2="980" y2="490" stroke="#222"/><line x1="85" y1="490" x2="85" y2="55" stroke="#222"/><line x1="85.0" y1="490" x2="85.0" y2="495" stroke="#555"/><text x="85.0" y="512" text-anchor="middle" font-size="11">0.10</text><line x1="80" y1="490.0" x2="85" y2="490.0" stroke="#555"/><text x="76" y="494.0" text-anchor="end" font-size="11">0.00848</text><line x1="85" y1="490.0" x2="980" y2="490.0" stroke="#ddd" stroke-width="0.7"/><line x1="264.0" y1="490" x2="264.0" y2="495" stroke="#555"/><text x="264.0" y="512" text-anchor="middle" font-size="11">0.28</text><line x1="80" y1="403.0" x2="85" y2="403.0" stroke="#555"/><text x="76" y="407.0" text-anchor="end" font-size="11">0.167</text><line x1="85" y1="403.0" x2="980" y2="403.0" stroke="#ddd" stroke-width="0.7"/><line x1="443.0" y1="490" x2="443.0" y2="495" stroke="#555"/><text x="443.0" y="512" text-anchor="middle" font-size="11">0.46</text><line x1="80" y1="316.0" x2="85" y2="316.0" stroke="#555"/><text x="76" y="320.0" text-anchor="end" font-size="11">0.325</text><line x1="85" y1="316.0" x2="980" y2="316.0" stroke="#ddd" stroke-width="0.7"/><line x1="622.0" y1="490" x2="622.0" y2="495" stroke="#555"/><text x="622.0" y="512" text-anchor="middle" font-size="11">0.64</text><line x1="80" y1="229.0" x2="85" y2="229.0" stroke="#555"/><text x="76" y="233.0" text-anchor="end" font-size="11">0.483</text><line x1="85" y1="229.0" x2="980" y2="229.0" stroke="#ddd" stroke-width="0.7"/><line x1="801.0" y1="490" x2="801.0" y2="495" stroke="#555"/><text x="801.0" y="512" text-anchor="middle" font-size="11">0.82</text><line x1="80" y1="142.0" x2="85" y2="142.0" stroke="#555"/><text x="76" y="146.0" text-anchor="end" font-size="11">0.641</text><line x1="85" y1="142.0" x2="980" y2="142.0" stroke="#ddd" stroke-width="0.7"/><line x1="980.0" y1="490" x2="980.0" y2="495" stroke="#555"/><text x="980.0" y="512" text-anchor="middle" font-size="11">1.00</text><line x1="80" y1="55.0" x2="85" y2="55.0" stroke="#555"/><text x="76" y="59.0" text-anchor="end" font-size="11">0.799</text><line x1="85" y1="55.0" x2="980" y2="55.0" stroke="#ddd" stroke-width="0.7"/><polyline points="85.0,454.7 184.4,351.2 283.9,265.9 383.3,231.2 482.8,212.6 582.2,187.7 681.7,164.6 781.1,147.6 880.6,137.3 980.0,125.5" fill="none" stroke="#1f77b4" stroke-width="2"/><circle cx="85.0" cy="454.7" r="2.5" fill="#1f77b4"/><circle cx="184.4" cy="351.2" r="2.5" fill="#1f77b4"/><circle cx="283.9" cy="265.9" r="2.5" fill="#1f77b4"/><circle cx="383.3" cy="231.2" r="2.5" fill="#1f77b4"/><circle cx="482.8" cy="212.6" r="2.5" fill="#1f77b4"/><circle cx="582.2" cy="187.7" r="2.5" fill="#1f77b4"/><circle cx="681.7" cy="164.6" r="2.5" fill="#1f77b4"/><circle cx="781.1" cy="147.6" r="2.5" fill="#1f77b4"/><circle cx="880.6" cy="137.3" r="2.5" fill="#1f77b4"/><circle cx="980.0" cy="125.5" r="2.5" fill="#1f77b4"/><line x1="998" y1="75" x2="1022" y2="75" stroke="#1f77b4" stroke-width="3"/><text x="1028" y="79" font-size="10">p9_p9_freeze_population_t42_r43</text><polyline points="85.0,458.6 184.4,360.7 283.9,318.6 383.3,212.3 482.8,149.7 582.2,124.9 681.7,104.3 781.1,96.9 880.6,92.9 980.0,91.0" fill="none" stroke="#d62728" stroke-width="2"/><circle cx="85.0" cy="458.6" r="2.5" fill="#d62728"/><circle cx="184.4" cy="360.7" r="2.5" fill="#d62728"/><circle cx="283.9" cy="318.6" r="2.5" fill="#d62728"/><circle cx="383.3" cy="212.3" r="2.5" fill="#d62728"/><circle cx="482.8" cy="149.7" r="2.5" fill="#d62728"/><circle cx="582.2" cy="124.9" r="2.5" fill="#d62728"/><circle cx="681.7" cy="104.3" r="2.5" fill="#d62728"/><circle cx="781.1" cy="96.9" r="2.5" fill="#d62728"/><circle cx="880.6" cy="92.9" r="2.5" fill="#d62728"/><circle cx="980.0" cy="91.0" r="2.5" fill="#d62728"/><line x1="998" y1="95" x2="1022" y2="95" stroke="#d62728" stroke-width="3"/><text x="1028" y="99" font-size="10">p9_p9_freeze_population_t42_r44</text><polyline points="85.0,458.8 184.4,388.8 283.9,290.0 383.3,231.3 482.8,171.3 582.2,158.9 681.7,141.0 781.1,130.2 880.6,127.8 980.0,120.4" fill="none" stroke="#2ca02c" stroke-width="2"/><circle cx="85.0" cy="458.8" r="2.5" fill="#2ca02c"/><circle cx="184.4" cy="388.8" r="2.5" fill="#2ca02c"/><circle cx="283.9" cy="290.0" r="2.5" fill="#2ca02c"/><circle cx="383.3" cy="231.3" r="2.5" fill="#2ca02c"/><circle cx="482.8" cy="171.3" r="2.5" fill="#2ca02c"/><circle cx="582.2" cy="158.9" r="2.5" fill="#2ca02c"/><circle cx="681.7" cy="141.0" r="2.5" fill="#2ca02c"/><circle cx="781.1" cy="130.2" r="2.5" fill="#2ca02c"/><circle cx="880.6" cy="127.8" r="2.5" fill="#2ca02c"/><circle cx="980.0" cy="120.4" r="2.5" fill="#2ca02c"/><line x1="998" y1="115" x2="1022" y2="115" stroke="#2ca02c" stroke-width="3"/><text x="1028" y="119" font-size="10">p9_p9_freeze_population_t43_r42</text><polyline points="85.0,457.1 184.4,358.0 283.9,307.7 383.3,279.5 482.8,266.8 582.2,232.8 681.7,203.8 781.1,183.1 880.6,178.1 980.0,174.3" fill="none" stroke="#9467bd" stroke-width="2"/><circle cx="85.0" cy="457.1" r="2.5" fill="#9467bd"/><circle cx="184.4" cy="358.0" r="2.5" fill="#9467bd"/><circle cx="283.9" cy="307.7" r="2.5" fill="#9467bd"/><circle cx="383.3" cy="279.5" r="2.5" fill="#9467bd"/><circle cx="482.8" cy="266.8" r="2.5" fill="#9467bd"/><circle cx="582.2" cy="232.8" r="2.5" fill="#9467bd"/><circle cx="681.7" cy="203.8" r="2.5" fill="#9467bd"/><circle cx="781.1" cy="183.1" r="2.5" fill="#9467bd"/><circle cx="880.6" cy="178.1" r="2.5" fill="#9467bd"/><circle cx="980.0" cy="174.3" r="2.5" fill="#9467bd"/><line x1="998" y1="135" x2="1022" y2="135" stroke="#9467bd" stroke-width="3"/><text x="1028" y="139" font-size="10">p9_p9_freeze_population_t43_r43</text><polyline points="85.0,460.0 184.4,421.5 283.9,339.3 383.3,224.3 482.8,193.9 582.2,180.8 681.7,140.0 781.1,131.8 880.6,122.5 980.0,124.4" fill="none" stroke="#ff7f0e" stroke-width="2"/><circle cx="85.0" cy="460.0" r="2.5" fill="#ff7f0e"/><circle cx="184.4" cy="421.5" r="2.5" fill="#ff7f0e"/><circle cx="283.9" cy="339.3" r="2.5" fill="#ff7f0e"/><circle cx="383.3" cy="224.3" r="2.5" fill="#ff7f0e"/><circle cx="482.8" cy="193.9" r="2.5" fill="#ff7f0e"/><circle cx="582.2" cy="180.8" r="2.5" fill="#ff7f0e"/><circle cx="681.7" cy="140.0" r="2.5" fill="#ff7f0e"/><circle cx="781.1" cy="131.8" r="2.5" fill="#ff7f0e"/><circle cx="880.6" cy="122.5" r="2.5" fill="#ff7f0e"/><circle cx="980.0" cy="124.4" r="2.5" fill="#ff7f0e"/><line x1="998" y1="155" x2="1022" y2="155" stroke="#ff7f0e" stroke-width="3"/><text x="1028" y="159" font-size="10">p9_p9_freeze_population_t43_r44</text><polyline points="85.0,457.5 184.4,403.1 283.9,269.6 383.3,175.5 482.8,135.7 582.2,131.6 681.7,137.8 781.1,131.6 880.6,125.9 980.0,120.1" fill="none" stroke="#17becf" stroke-width="2"/><circle cx="85.0" cy="457.5" r="2.5" fill="#17becf"/><circle cx="184.4" cy="403.1" r="2.5" fill="#17becf"/><circle cx="283.9" cy="269.6" r="2.5" fill="#17becf"/><circle cx="383.3" cy="175.5" r="2.5" fill="#17becf"/><circle cx="482.8" cy="135.7" r="2.5" fill="#17becf"/><circle cx="582.2" cy="131.6" r="2.5" fill="#17becf"/><circle cx="681.7" cy="137.8" r="2.5" fill="#17becf"/><circle cx="781.1" cy="131.6" r="2.5" fill="#17becf"/><circle cx="880.6" cy="125.9" r="2.5" fill="#17becf"/><circle cx="980.0" cy="120.1" r="2.5" fill="#17becf"/><line x1="998" y1="175" x2="1022" y2="175" stroke="#17becf" stroke-width="3"/><text x="1028" y="179" font-size="10">p9_p9_freeze_population_t44_r42</text><polyline points="85.0,454.6 184.4,332.4 283.9,281.1 383.3,251.2 482.8,223.2 582.2,200.8 681.7,186.2 781.1,168.6 880.6,160.3 980.0,153.4" fill="none" stroke="#8c564b" stroke-width="2"/><circle cx="85.0" cy="454.6" r="2.5" fill="#8c564b"/><circle cx="184.4" cy="332.4" r="2.5" fill="#8c564b"/><circle cx="283.9" cy="281.1" r="2.5" fill="#8c564b"/><circle cx="383.3" cy="251.2" r="2.5" fill="#8c564b"/><circle cx="482.8" cy="223.2" r="2.5" fill="#8c564b"/><circle cx="582.2" cy="200.8" r="2.5" fill="#8c564b"/><circle cx="681.7" cy="186.2" r="2.5" fill="#8c564b"/><circle cx="781.1" cy="168.6" r="2.5" fill="#8c564b"/><circle cx="880.6" cy="160.3" r="2.5" fill="#8c564b"/><circle cx="980.0" cy="153.4" r="2.5" fill="#8c564b"/><line x1="998" y1="195" x2="1022" y2="195" stroke="#8c564b" stroke-width="3"/><text x="1028" y="199" font-size="10">p9_p9_freeze_population_t44_r43</text><polyline points="85.0,458.9 184.4,392.0 283.9,315.8 383.3,213.5 482.8,174.2 582.2,161.4 681.7,133.7 781.1,127.5 880.6,125.8 980.0,127.9" fill="none" stroke="#e377c2" stroke-width="2"/><circle cx="85.0" cy="458.9" r="2.5" fill="#e377c2"/><circle cx="184.4" cy="392.0" r="2.5" fill="#e377c2"/><circle cx="283.9" cy="315.8" r="2.5" fill="#e377c2"/><circle cx="383.3" cy="213.5" r="2.5" fill="#e377c2"/><circle cx="482.8" cy="174.2" r="2.5" fill="#e377c2"/><circle cx="582.2" cy="161.4" r="2.5" fill="#e377c2"/><circle cx="681.7" cy="133.7" r="2.5" fill="#e377c2"/><circle cx="781.1" cy="127.5" r="2.5" fill="#e377c2"/><circle cx="880.6" cy="125.8" r="2.5" fill="#e377c2"/><circle cx="980.0" cy="127.9" r="2.5" fill="#e377c2"/><line x1="998" y1="215" x2="1022" y2="215" stroke="#e377c2" stroke-width="3"/><text x="1028" y="219" font-size="10">p9_p9_freeze_population_t44_r44</text><polyline points="85.0,458.9 184.4,393.8 283.9,263.0 383.3,175.8 482.8,130.0 582.2,122.0 681.7,101.5 781.1,91.9 880.6,85.0 980.0,103.1" fill="none" stroke="#7f7f7f" stroke-width="2"/><circle cx="85.0" cy="458.9" r="2.5" fill="#7f7f7f"/><circle cx="184.4" cy="393.8" r="2.5" fill="#7f7f7f"/><circle cx="283.9" cy="263.0" r="2.5" fill="#7f7f7f"/><circle cx="383.3" cy="175.8" r="2.5" fill="#7f7f7f"/><circle cx="482.8" cy="130.0" r="2.5" fill="#7f7f7f"/><circle cx="582.2" cy="122.0" r="2.5" fill="#7f7f7f"/><circle cx="681.7" cy="101.5" r="2.5" fill="#7f7f7f"/><circle cx="781.1" cy="91.9" r="2.5" fill="#7f7f7f"/><circle cx="880.6" cy="85.0" r="2.5" fill="#7f7f7f"/><circle cx="980.0" cy="103.1" r="2.5" fill="#7f7f7f"/><line x1="998" y1="235" x2="1022" y2="235" stroke="#7f7f7f" stroke-width="3"/><text x="1028" y="239" font-size="10">p9_freeze_q_power_t42_r42</text><polyline points="85.0,456.9 184.4,364.0 283.9,276.6 383.3,244.8 482.8,207.9 582.2,173.9 681.7,129.0 781.1,87.7 880.6,98.4 980.0,130.0" fill="none" stroke="#bcbd22" stroke-width="2"/><circle cx="85.0" cy="456.9" r="2.5" fill="#bcbd22"/><circle cx="184.4" cy="364.0" r="2.5" fill="#bcbd22"/><circle cx="283.9" cy="276.6" r="2.5" fill="#bcbd22"/><circle cx="383.3" cy="244.8" r="2.5" fill="#bcbd22"/><circle cx="482.8" cy="207.9" r="2.5" fill="#bcbd22"/><circle cx="582.2" cy="173.9" r="2.5" fill="#bcbd22"/><circle cx="681.7" cy="129.0" r="2.5" fill="#bcbd22"/><circle cx="781.1" cy="87.7" r="2.5" fill="#bcbd22"/><circle cx="880.6" cy="98.4" r="2.5" fill="#bcbd22"/><circle cx="980.0" cy="130.0" r="2.5" fill="#bcbd22"/><line x1="998" y1="255" x2="1022" y2="255" stroke="#bcbd22" stroke-width="3"/><text x="1028" y="259" font-size="10">p9_freeze_q_power_t42_r43</text><polyline points="85.0,458.9 184.4,368.5 283.9,319.1 383.3,179.0 482.8,143.5 582.2,110.1 681.7,93.6 781.1,103.4 880.6,107.5 980.0,120.6" fill="none" stroke="#1f77b4" stroke-width="2"/><circle cx="85.0" cy="458.9" r="2.5" fill="#1f77b4"/><circle cx="184.4" cy="368.5" r="2.5" fill="#1f77b4"/><circle cx="283.9" cy="319.1" r="2.5" fill="#1f77b4"/><circle cx="383.3" cy="179.0" r="2.5" fill="#1f77b4"/><circle cx="482.8" cy="143.5" r="2.5" fill="#1f77b4"/><circle cx="582.2" cy="110.1" r="2.5" fill="#1f77b4"/><circle cx="681.7" cy="93.6" r="2.5" fill="#1f77b4"/><circle cx="781.1" cy="103.4" r="2.5" fill="#1f77b4"/><circle cx="880.6" cy="107.5" r="2.5" fill="#1f77b4"/><circle cx="980.0" cy="120.6" r="2.5" fill="#1f77b4"/><line x1="998" y1="275" x2="1022" y2="275" stroke="#1f77b4" stroke-width="3"/><text x="1028" y="279" font-size="10">p9_freeze_q_power_t42_r44</text><polyline points="85.0,458.6 184.4,385.3 283.9,270.9 383.3,200.0 482.8,125.8 582.2,125.2 681.7,88.4 781.1,88.0 880.6,86.3 980.0,91.0" fill="none" stroke="#d62728" stroke-width="2"/><circle cx="85.0" cy="458.6" r="2.5" fill="#d62728"/><circle cx="184.4" cy="385.3" r="2.5" fill="#d62728"/><circle cx="283.9" cy="270.9" r="2.5" fill="#d62728"/><circle cx="383.3" cy="200.0" r="2.5" fill="#d62728"/><circle cx="482.8" cy="125.8" r="2.5" fill="#d62728"/><circle cx="582.2" cy="125.2" r="2.5" fill="#d62728"/><circle cx="681.7" cy="88.4" r="2.5" fill="#d62728"/><circle cx="781.1" cy="88.0" r="2.5" fill="#d62728"/><circle cx="880.6" cy="86.3" r="2.5" fill="#d62728"/><circle cx="980.0" cy="91.0" r="2.5" fill="#d62728"/><line x1="998" y1="295" x2="1022" y2="295" stroke="#d62728" stroke-width="3"/><text x="1028" y="299" font-size="10">p9_freeze_q_power_t43_r42</text><polyline points="85.0,457.2 184.4,371.2 283.9,307.1 383.3,286.1 482.8,259.6 582.2,210.2 681.7,148.1 781.1,117.4 880.6,114.9 980.0,154.4" fill="none" stroke="#2ca02c" stroke-width="2"/><circle cx="85.0" cy="457.2" r="2.5" fill="#2ca02c"/><circle cx="184.4" cy="371.2" r="2.5" fill="#2ca02c"/><circle cx="283.9" cy="307.1" r="2.5" fill="#2ca02c"/><circle cx="383.3" cy="286.1" r="2.5" fill="#2ca02c"/><circle cx="482.8" cy="259.6" r="2.5" fill="#2ca02c"/><circle cx="582.2" cy="210.2" r="2.5" fill="#2ca02c"/><circle cx="681.7" cy="148.1" r="2.5" fill="#2ca02c"/><circle cx="781.1" cy="117.4" r="2.5" fill="#2ca02c"/><circle cx="880.6" cy="114.9" r="2.5" fill="#2ca02c"/><circle cx="980.0" cy="154.4" r="2.5" fill="#2ca02c"/><line x1="998" y1="315" x2="1022" y2="315" stroke="#2ca02c" stroke-width="3"/><text x="1028" y="319" font-size="10">p9_freeze_q_power_t43_r43</text><polyline points="85.0,459.9 184.4,424.0 283.9,347.1 383.3,161.4 482.8,144.4 582.2,120.8 681.7,88.3 781.1,86.9 880.6,89.6 980.0,99.5" fill="none" stroke="#9467bd" stroke-width="2"/><circle cx="85.0" cy="459.9" r="2.5" fill="#9467bd"/><circle cx="184.4" cy="424.0" r="2.5" fill="#9467bd"/><circle cx="283.9" cy="347.1" r="2.5" fill="#9467bd"/><circle cx="383.3" cy="161.4" r="2.5" fill="#9467bd"/><circle cx="482.8" cy="144.4" r="2.5" fill="#9467bd"/><circle cx="582.2" cy="120.8" r="2.5" fill="#9467bd"/><circle cx="681.7" cy="88.3" r="2.5" fill="#9467bd"/><circle cx="781.1" cy="86.9" r="2.5" fill="#9467bd"/><circle cx="880.6" cy="89.6" r="2.5" fill="#9467bd"/><circle cx="980.0" cy="99.5" r="2.5" fill="#9467bd"/><line x1="998" y1="335" x2="1022" y2="335" stroke="#9467bd" stroke-width="3"/><text x="1028" y="339" font-size="10">p9_freeze_q_power_t43_r44</text><polyline points="85.0,456.3 184.4,398.1 283.9,263.9 383.3,145.2 482.8,102.8 582.2,97.0 681.7,94.5 781.1,94.4 880.6,93.2 980.0,123.4" fill="none" stroke="#ff7f0e" stroke-width="2"/><circle cx="85.0" cy="456.3" r="2.5" fill="#ff7f0e"/><circle cx="184.4" cy="398.1" r="2.5" fill="#ff7f0e"/><circle cx="283.9" cy="263.9" r="2.5" fill="#ff7f0e"/><circle cx="383.3" cy="145.2" r="2.5" fill="#ff7f0e"/><circle cx="482.8" cy="102.8" r="2.5" fill="#ff7f0e"/><circle cx="582.2" cy="97.0" r="2.5" fill="#ff7f0e"/><circle cx="681.7" cy="94.5" r="2.5" fill="#ff7f0e"/><circle cx="781.1" cy="94.4" r="2.5" fill="#ff7f0e"/><circle cx="880.6" cy="93.2" r="2.5" fill="#ff7f0e"/><circle cx="980.0" cy="123.4" r="2.5" fill="#ff7f0e"/><line x1="998" y1="355" x2="1022" y2="355" stroke="#ff7f0e" stroke-width="3"/><text x="1028" y="359" font-size="10">p9_freeze_q_power_t44_r42</text><polyline points="85.0,453.4 184.4,349.9 283.9,313.7 383.3,271.9 482.8,222.1 582.2,184.9 681.7,148.6 781.1,150.1 880.6,165.1 980.0,206.6" fill="none" stroke="#17becf" stroke-width="2"/><circle cx="85.0" cy="453.4" r="2.5" fill="#17becf"/><circle cx="184.4" cy="349.9" r="2.5" fill="#17becf"/><circle cx="283.9" cy="313.7" r="2.5" fill="#17becf"/><circle cx="383.3" cy="271.9" r="2.5" fill="#17becf"/><circle cx="482.8" cy="222.1" r="2.5" fill="#17becf"/><circle cx="582.2" cy="184.9" r="2.5" fill="#17becf"/><circle cx="681.7" cy="148.6" r="2.5" fill="#17becf"/><circle cx="781.1" cy="150.1" r="2.5" fill="#17becf"/><circle cx="880.6" cy="165.1" r="2.5" fill="#17becf"/><circle cx="980.0" cy="206.6" r="2.5" fill="#17becf"/><line x1="998" y1="375" x2="1022" y2="375" stroke="#17becf" stroke-width="3"/><text x="1028" y="379" font-size="10">p9_freeze_q_power_t44_r43</text><polyline points="85.0,458.4 184.4,391.6 283.9,343.8 383.3,179.2 482.8,146.8 582.2,125.1 681.7,90.4 781.1,100.8 880.6,103.9 980.0,124.2" fill="none" stroke="#8c564b" stroke-width="2"/><circle cx="85.0" cy="458.4" r="2.5" fill="#8c564b"/><circle cx="184.4" cy="391.6" r="2.5" fill="#8c564b"/><circle cx="283.9" cy="343.8" r="2.5" fill="#8c564b"/><circle cx="383.3" cy="179.2" r="2.5" fill="#8c564b"/><circle cx="482.8" cy="146.8" r="2.5" fill="#8c564b"/><circle cx="582.2" cy="125.1" r="2.5" fill="#8c564b"/><circle cx="681.7" cy="90.4" r="2.5" fill="#8c564b"/><circle cx="781.1" cy="100.8" r="2.5" fill="#8c564b"/><circle cx="880.6" cy="103.9" r="2.5" fill="#8c564b"/><circle cx="980.0" cy="124.2" r="2.5" fill="#8c564b"/><line x1="998" y1="395" x2="1022" y2="395" stroke="#8c564b" stroke-width="3"/><text x="1028" y="399" font-size="10">p9_freeze_q_power_t44_r44</text><polyline points="85.0,459.0 184.4,384.3 283.9,235.4 383.3,148.6 482.8,126.9 582.2,121.7 681.7,116.0 781.1,106.2 880.6,101.4 980.0,102.3" fill="none" stroke="#e377c2" stroke-width="2"/><circle cx="85.0" cy="459.0" r="2.5" fill="#e377c2"/><circle cx="184.4" cy="384.3" r="2.5" fill="#e377c2"/><circle cx="283.9" cy="235.4" r="2.5" fill="#e377c2"/><circle cx="383.3" cy="148.6" r="2.5" fill="#e377c2"/><circle cx="482.8" cy="126.9" r="2.5" fill="#e377c2"/><circle cx="582.2" cy="121.7" r="2.5" fill="#e377c2"/><circle cx="681.7" cy="116.0" r="2.5" fill="#e377c2"/><circle cx="781.1" cy="106.2" r="2.5" fill="#e377c2"/><circle cx="880.6" cy="101.4" r="2.5" fill="#e377c2"/><circle cx="980.0" cy="102.3" r="2.5" fill="#e377c2"/><line x1="998" y1="415" x2="1022" y2="415" stroke="#e377c2" stroke-width="3"/><text x="1028" y="419" font-size="10">p9_freeze_population_t42_r42</text><text x="532.5" y="540" text-anchor="middle" font-size="14">Retained rank ratio</text><text x="20" y="272.5" transform="rotate(-90 20 272.5)" text-anchor="middle" font-size="14">Macro-F1</text><text x="532.5" y="26" text-anchor="middle" font-size="17" font-weight="bold">Macro-F1 vs retained rank</text></svg>