<svg xmlns="http://www.w3.org/2000/svg" width="530" height="545"><rect width="100%" height="100%" fill="white"/><text x="265.0" y="25" text-anchor="middle" font-size="16" font-weight="bold">p9_freeze_q_power_t43_r42: best, ratio=0.9</text><rect x="70" y="55" width="42" height="42" fill="rgb(94,94,255)" stroke="white"/><text x="91.0" y="80.0" text-anchor="middle" font-size="10">876</text><rect x="112" y="55" width="42" height="42" fill="rgb(245,245,255)" stroke="white"/><text x="133.0" y="80.0" text-anchor="middle" font-size="10">0</text><rect x="154" y="55" width="42" height="42" fill="rgb(239,239,255)" stroke="white"/><text x="175.0" y="80.0" text-anchor="middle" font-size="10">33</text><rect x="196" y="55" width="42" height="42" fill="rgb(242,242,255)" stroke="white"/><text x="217.0" y="80.0" text-anchor="middle" font-size="10">15</text><rect x="238" y="55" width="42" height="42" fill="rgb(245,245,255)" stroke="white"/><text x="259.0" y="80.0" text-anchor="middle" font-size="10">0</text><rect x="280" y="55" width="42" height="42" fill="rgb(243,243,255)" stroke="white"/><text x="301.0" y="80.0" text-anchor="middle" font-size="10">7</text><rect x="322" y="55" width="42" height="42" fill="rgb(242,242,255)" stroke="white"/><text x="343.0" y="80.0" text-anchor="middle" font-size="10">17</text><rect x="364" y="55" width="42" height="42" fill="rgb(244,244,255)" stroke="white"/><text x="385.0" y="80.0" text-anchor="middle" font-size="10">4</text><rect x="406" y="55" width="42" height="42" fill="rgb(240,240,255)" stroke="white"/><text x="427.0" y="80.0" text-anchor="middle" font-size="10">28</text><rect x="448" y="55" width="42" height="42" fill="rgb(245,245,255)" stroke="white"/><text x="469.0" y="80.0" text-anchor="middle" font-size="10">0</text><rect x="70" y="97" width="42" height="42" fill="rgb(245,245,255)" stroke="white"/><text x="91.0" y="122.0" text-anchor="middle" font-size="10">0</text><rect x="112" y="97" width="42" height="42" fill="rgb(55,55,255)" stroke="white"/><text x="133.0" y="122.0" text-anchor="middle" font-size="10">1106</text><rect x="154" y="97" width="42" height="42" fill="rgb(244,244,255)" stroke="white"/><text x="175.0" y="122.0" text-anchor="middle" font-size="10">1</text><rect x="196" y="97" width="42" height="42" fill="rgb(244,244,255)" stroke="white"/><text x="217.0" y="122.0" text-anchor="middle" font-size="10">3</text><rect x="238" y="97" width="42" height="42" fill="rgb(245,245,255)" stroke="white"/><text x="259.0" y="122.0" text-anchor="middle" font-size="10">0</text><rect x="280" y="97" width="42" height="42" fill="rgb(244,244,255)" stroke="white"/><text x="301.0" y="122.0" text-anchor="middle" font-size="10">2</text><rect x="322" y="97" width="42" height="42" fill="rgb(244,244,255)" stroke="white"/><text x="343.0" y="122.0" text-anchor="middle" font-size="10">4</text><rect x="364" y="97" width="42" height="42" fill="rgb(244,244,255)" stroke="white"/><text x="385.0" y="122.0" text-anchor="middle" font-size="10">1</text><rect x="406" y="97" width="42" height="42" fill="rgb(241,241,255)" stroke="white"/><text x="427.0" y="122.0" text-anchor="middle" font-size="10">18</text><rect x="448" y="97" width="42" height="42" fill="rgb(245,245,255)" stroke="white"/><text x="469.0" y="122.0" text-anchor="middle" font-size="10">0</text><rect x="70" y="139" width="42" height="42" fill="rgb(242,242,255)" stroke="white"/><text x="91.0" y="164.0" text-anchor="middle" font-size="10">14</text><rect x="112" y="139" width="42" height="42" fill="rgb(242,242,255)" stroke="white"/><text x="133.0" y="164.0" text-anchor="middle" font-size="10">13</text><rect x="154" y="139" width="42" height="42" fill="rgb(123,123,255)" stroke="white"/><text x="175.0" y="164.0" text-anchor="middle" font-size="10">709</text><rect x="196" y="139" width="42" height="42" fill="rgb(243,243,255)" stroke="white"/><text x="217.0" y="164.0" text-anchor="middle" font-size="10">9</text><rect x="238" y="139" width="42" height="42" fill="rgb(243,243,255)" stroke="white"/><text x="259.0" y="164.0" text-anchor="middle" font-size="10">8</text><rect x="280" y="139" width="42" height="42" fill="rgb(245,245,255)" stroke="white"/><text x="301.0" y="164.0" text-anchor="middle" font-size="10">0</text><rect x="322" y="139" width="42" height="42" fill="rgb(238,238,255)" stroke="white"/><text x="343.0" y="164.0" text-anchor="middle" font-size="10">36</text><rect x="364" y="139" width="42" height="42" fill="rgb(241,241,255)" stroke="white"/><text x="385.0" y="164.0" text-anchor="middle" font-size="10">21</text><rect x="406" y="139" width="42" height="42" fill="rgb(207,207,255)" stroke="white"/><text x="427.0" y="164.0" text-anchor="middle" font-size="10">220</text><rect x="448" y="139" width="42" height="42" fill="rgb(244,244,255)" stroke="white"/><text x="469.0" y="164.0" text-anchor="middle" font-size="10">2</text><rect x="70" y="181" width="42" height="42" fill="rgb(238,238,255)" stroke="white"/><text x="91.0" y="206.0" text-anchor="middle" font-size="10">39</text><rect x="112" y="181" width="42" height="42" fill="rgb(242,242,255)" stroke="white"/><text x="133.0" y="206.0" text-anchor="middle" font-size="10">15</text><rect x="154" y="181" width="42" height="42" fill="rgb(240,240,255)" stroke="white"/><text x="175.0" y="206.0" text-anchor="middle" font-size="10">25</text><rect x="196" y="181" width="42" height="42" fill="rgb(133,133,255)" stroke="white"/><text x="217.0" y="206.0" text-anchor="middle" font-size="10">648</text><rect x="238" y="181" width="42" height="42" fill="rgb(245,245,255)" stroke="white"/><text x="259.0" y="206.0" text-anchor="middle" font-size="10">0</text><rect x="280" y="181" width="42" height="42" fill="rgb(216,216,255)" stroke="white"/><text x="301.0" y="206.0" text-anchor="middle" font-size="10">165</text><rect x="322" y="181" width="42" height="42" fill="rgb(244,244,255)" stroke="white"/><text x="343.0" y="206.0" text-anchor="middle" font-size="10">4</text><rect x="364" y="181" width="42" height="42" fill="rgb(238,238,255)" stroke="white"/><text x="385.0" y="206.0" text-anchor="middle" font-size="10">36</text><rect x="406" y="181" width="42" height="42" fill="rgb(232,232,255)" stroke="white"/><text x="427.0" y="206.0" text-anchor="middle" font-size="10">75</text><rect x="448" y="181" width="42" height="42" fill="rgb(244,244,255)" stroke="white"/><text x="469.0" y="206.0" text-anchor="middle" font-size="10">3</text><rect x="70" y="223" width="42" height="42" fill="rgb(245,245,255)" stroke="white"/><text x="91.0" y="248.0" text-anchor="middle" font-size="10">0</text><rect x="112" y="223" width="42" height="42" fill="rgb(243,243,255)" stroke="white"/><text x="133.0" y="248.0" text-anchor="middle" font-size="10">10</text><rect x="154" y="223" width="42" height="42" fill="rgb(230,230,255)" stroke="white"/><text x="175.0" y="248.0" text-anchor="middle" font-size="10">84</text><rect x="196" y="223" width="42" height="42" fill="rgb(245,245,255)" stroke="white"/><text x="217.0" y="248.0" text-anchor="middle" font-size="10">0</text><rect x="238" y="223" width="42" height="42" fill="rgb(115,115,255)" stroke="white"/><text x="259.0" y="248.0" text-anchor="middle" font-size="10">754</text><rect x="280" y="223" width="42" height="42" fill="rgb(245,245,255)" stroke="white"/><text x="301.0" y="248.0" text-anchor="middle" font-size="10">0</text><rect x="322" y="223" width="42" height="42" fill="rgb(241,241,255)" stroke="white"/><text x="343.0" y="248.0" text-anchor="middle" font-size="10">23</text><rect x="364" y="223" width="42" height="42" fill="rgb(242,242,255)" stroke="white"/><text x="385.0" y="248.0" text-anchor="middle" font-size="10">17</text><rect x="406" y="223" width="42" height="42" fill="rgb(245,245,255)" stroke="white"/><text x="427.0" y="248.0" text-anchor="middle" font-size="10">0</text><rect x="448" y="223" width="42" height="42" fill="rgb(228,228,255)" stroke="white"/><text x="469.0" y="248.0" text-anchor="middle" font-size="10">94</text><rect x="70" y="265" width="42" height="42" fill="rgb(240,240,255)" stroke="white"/><text x="91.0" y="290.0" text-anchor="middle" font-size="10">28</text><rect x="112" y="265" width="42" height="42" fill="rgb(242,242,255)" stroke="white"/><text x="133.0" y="290.0" text-anchor="middle" font-size="10">15</text><rect x="154" y="265" width="42" height="42" fill="rgb(241,241,255)" stroke="white"/><text x="175.0" y="290.0" text-anchor="middle" font-size="10">22</text><rect x="196" y="265" width="42" height="42" fill="rgb(229,229,255)" stroke="white"/><text x="217.0" y="290.0" text-anchor="middle" font-size="10">93</text><rect x="238" y="265" width="42" height="42" fill="rgb(244,244,255)" stroke="white"/><text x="259.0" y="290.0" text-anchor="middle" font-size="10">2</text><rect x="280" y="265" width="42" height="42" fill="rgb(151,151,255)" stroke="white"/><text x="301.0" y="290.0" text-anchor="middle" font-size="10">543</text><rect x="322" y="265" width="42" height="42" fill="rgb(244,244,255)" stroke="white"/><text x="343.0" y="290.0" text-anchor="middle" font-size="10">4</text><rect x="364" y="265" width="42" height="42" fill="rgb(243,243,255)" stroke="white"/><text x="385.0" y="290.0" text-anchor="middle" font-size="10">8</text><rect x="406" y="265" width="42" height="42" fill="rgb(214,214,255)" stroke="white"/><text x="427.0" y="290.0" text-anchor="middle" font-size="10">176</text><rect x="448" y="265" width="42" height="42" fill="rgb(244,244,255)" stroke="white"/><text x="469.0" y="290.0" text-anchor="middle" font-size="10">1</text><rect x="70" y="307" width="42" height="42" fill="rgb(241,241,255)" stroke="white"/><text x="91.0" y="332.0" text-anchor="middle" font-size="10">18</text><rect x="112" y="307" width="42" height="42" fill="rgb(244,244,255)" stroke="white"/><text x="133.0" y="332.0" text-anchor="middle" font-size="10">2</text><rect x="154" y="307" width="42" height="42" fill="rgb(230,230,255)" stroke="white"/><text x="175.0" y="332.0" text-anchor="middle" font-size="10">87</text><rect x="196" y="307" width="42" height="42" fill="rgb(245,245,255)" stroke="white"/><text x="217.0" y="332.0" text-anchor="middle" font-size="10">0</text><rect x="238" y="307" width="42" height="42" fill="rgb(243,243,255)" stroke="white"/><text x="259.0" y="332.0" text-anchor="middle" font-size="10">10</text><rect x="280" y="307" width="42" height="42" fill="rgb(244,244,255)" stroke="white"/><text x="301.0" y="332.0" text-anchor="middle" font-size="10">1</text><rect x="322" y="307" width="42" height="42" fill="rgb(116,116,255)" stroke="white"/><text x="343.0" y="332.0" text-anchor="middle" font-size="10">746</text><rect x="364" y="307" width="42" height="42" fill="rgb(244,244,255)" stroke="white"/><text x="385.0" y="332.0" text-anchor="middle" font-size="10">1</text><rect x="406" y="307" width="42" height="42" fill="rgb(229,229,255)" stroke="white"/><text x="427.0" y="332.0" text-anchor="middle" font-size="10">92</text><rect x="448" y="307" width="42" height="42" fill="rgb(244,244,255)" stroke="white"/><text x="469.0" y="332.0" text-anchor="middle" font-size="10">1</text><rect x="70" y="349" width="42" height="42" fill="rgb(245,245,255)" stroke="white"/><text x="91.0" y="374.0" text-anchor="middle" font-size="10">0</text><rect x="112" y="349" width="42" height="42" fill="rgb(241,241,255)" stroke="white"/><text x="133.0" y="374.0" text-anchor="middle" font-size="10">20</text><rect x="154" y="349" width="42" height="42" fill="rgb(240,240,255)" stroke="white"/><text x="175.0" y="374.0" text-anchor="middle" font-size="10">25</text><rect x="196" y="349" width="42" height="42" fill="rgb(243,243,255)" stroke="white"/><text x="217.0" y="374.0" text-anchor="middle" font-size="10">8</text><rect x="238" y="349" width="42" height="42" fill="rgb(242,242,255)" stroke="white"/><text x="259.0" y="374.0" text-anchor="middle" font-size="10">12</text><rect x="280" y="349" width="42" height="42" fill="rgb(244,244,255)" stroke="white"/><text x="301.0" y="374.0" text-anchor="middle" font-size="10">1</text><rect x="322" y="349" width="42" height="42" fill="rgb(245,245,255)" stroke="white"/><text x="343.0" y="374.0" text-anchor="middle" font-size="10">0</text><rect x="364" y="349" width="42" height="42" fill="rgb(84,84,255)" stroke="white"/><text x="385.0" y="374.0" text-anchor="middle" font-size="10">935</text><rect x="406" y="349" width="42" height="42" fill="rgb(244,244,255)" stroke="white"/><text x="427.0" y="374.0" text-anchor="middle" font-size="10">1</text><rect x="448" y="349" width="42" height="42" fill="rgb(240,240,255)" stroke="white"/><text x="469.0" y="374.0" text-anchor="middle" font-size="10">26</text><rect x="70" y="391" width="42" height="42" fill="rgb(242,242,255)" stroke="white"/><text x="91.0" y="416.0" text-anchor="middle" font-size="10">12</text><rect x="112" y="391" width="42" height="42" fill="rgb(234,234,255)" stroke="white"/><text x="133.0" y="416.0" text-anchor="middle" font-size="10">59</text><rect x="154" y="391" width="42" height="42" fill="rgb(228,228,255)" stroke="white"/><text x="175.0" y="416.0" text-anchor="middle" font-size="10">98</text><rect x="196" y="391" width="42" height="42" fill="rgb(237,237,255)" stroke="white"/><text x="217.0" y="416.0" text-anchor="middle" font-size="10">45</text><rect x="238" y="391" width="42" height="42" fill="rgb(244,244,255)" stroke="white"/><text x="259.0" y="416.0" text-anchor="middle" font-size="10">3</text><rect x="280" y="391" width="42" height="42" fill="rgb(233,233,255)" stroke="white"/><text x="301.0" y="416.0" text-anchor="middle" font-size="10">66</text><rect x="322" y="391" width="42" height="42" fill="rgb(244,244,255)" stroke="white"/><text x="343.0" y="416.0" text-anchor="middle" font-size="10">3</text><rect x="364" y="391" width="42" height="42" fill="rgb(240,240,255)" stroke="white"/><text x="385.0" y="416.0" text-anchor="middle" font-size="10">27</text><rect x="406" y="391" width="42" height="42" fill="rgb(131,131,255)" stroke="white"/><text x="427.0" y="416.0" text-anchor="middle" font-size="10">659</text><rect x="448" y="391" width="42" height="42" fill="rgb(244,244,255)" stroke="white"/><text x="469.0" y="416.0" text-anchor="middle" font-size="10">2</text><rect x="70" y="433" width="42" height="42" fill="rgb(244,244,255)" stroke="white"/><text x="91.0" y="458.0" text-anchor="middle" font-size="10">5</text><rect x="112" y="433" width="42" height="42" fill="rgb(240,240,255)" stroke="white"/><text x="133.0" y="458.0" text-anchor="middle" font-size="10">26</text><rect x="154" y="433" width="42" height="42" fill="rgb(235,235,255)" stroke="white"/><text x="175.0" y="458.0" text-anchor="middle" font-size="10">58</text><rect x="196" y="433" width="42" height="42" fill="rgb(239,239,255)" stroke="white"/><text x="217.0" y="458.0" text-anchor="middle" font-size="10">33</text><rect x="238" y="433" width="42" height="42" fill="rgb(220,220,255)" stroke="white"/><text x="259.0" y="458.0" text-anchor="middle" font-size="10">142</text><rect x="280" y="433" width="42" height="42" fill="rgb(244,244,255)" stroke="white"/><text x="301.0" y="458.0" text-anchor="middle" font-size="10">4</text><rect x="322" y="433" width="42" height="42" fill="rgb(244,244,255)" stroke="white"/><text x="343.0" y="458.0" text-anchor="middle" font-size="10">2</text><rect x="364" y="433" width="42" height="42" fill="rgb(203,203,255)" stroke="white"/><text x="385.0" y="458.0" text-anchor="middle" font-size="10">242</text><rect x="406" y="433" width="42" height="42" fill="rgb(244,244,255)" stroke="white"/><text x="427.0" y="458.0" text-anchor="middle" font-size="10">5</text><rect x="448" y="433" width="42" height="42" fill="rgb(160,160,255)" stroke="white"/><text x="469.0" y="458.0" text-anchor="middle" font-size="10">492</text><text x="91.0" y="493" text-anchor="middle" font-size="11">0</text><text x="58" y="80.0" text-anchor="middle" font-size="11">0</text><text x="133.0" y="493" text-anchor="middle" font-size="11">1</text><text x="58" y="122.0" text-anchor="middle" font-size="11">1</text><text x="175.0" y="493" text-anchor="middle" font-size="11">2</text><text x="58" y="164.0" text-anchor="middle" font-size="11">2</text><text x="217.0" y="493" text-anchor="middle" font-size="11">3</text><text x="58" y="206.0" text-anchor="middle" font-size="11">3</text><text x="259.0" y="493" text-anchor="middle" font-size="11">4</text><text x="58" y="248.0" text-anchor="middle" font-size="11">4</text><text x="301.0" y="493" text-anchor="middle" font-size="11">5</text><text x="58" y="290.0" text-anchor="middle" font-size="11">5</text><text x="343.0" y="493" text-anchor="middle" font-size="11">6</text><text x="58" y="332.0" text-anchor="middle" font-size="11">6</text><text x="385.0" y="493" text-anchor="middle" font-size="11">7</text><text x="58" y="374.0" text-anchor="middle" font-size="11">7</text><text x="427.0" y="493" text-anchor="middle" font-size="11">8</text><text x="58" y="416.0" text-anchor="middle" font-size="11">8</text><text x="469.0" y="493" text-anchor="middle" font-size="11">9</text><text x="58" y="458.0" text-anchor="middle" font-size="11">9</text><text x="280.0" y="527" text-anchor="middle" font-size="13">Predicted class</text><text x="18" y="265.0" transform="rotate(-90 18 265.0)" text-anchor="middle" font-size="13">True class</text></svg>