<svg xmlns="http://www.w3.org/2000/svg" width="530" height="545"><rect width="100%" height="100%" fill="white"/><text x="265.0" y="25" text-anchor="middle" font-size="16" font-weight="bold">p9_p9_freeze_population_t42_r43: best, ratio=1.0</text><rect x="70" y="55" width="42" height="42" fill="rgb(104,104,255)" stroke="white"/><text x="91.0" y="80.0" text-anchor="middle" font-size="10">821</text><rect x="112" y="55" width="42" height="42" fill="rgb(245,245,255)" stroke="white"/><text x="133.0" y="80.0" text-anchor="middle" font-size="10">0</text><rect x="154" y="55" width="42" height="42" fill="rgb(229,229,255)" stroke="white"/><text x="175.0" y="80.0" text-anchor="middle" font-size="10">93</text><rect x="196" y="55" width="42" height="42" fill="rgb(244,244,255)" stroke="white"/><text x="217.0" y="80.0" text-anchor="middle" font-size="10">2</text><rect x="238" y="55" width="42" height="42" fill="rgb(245,245,255)" stroke="white"/><text x="259.0" y="80.0" text-anchor="middle" font-size="10">0</text><rect x="280" y="55" width="42" height="42" fill="rgb(244,244,255)" stroke="white"/><text x="301.0" y="80.0" text-anchor="middle" font-size="10">3</text><rect x="322" y="55" width="42" height="42" fill="rgb(243,243,255)" stroke="white"/><text x="343.0" y="80.0" text-anchor="middle" font-size="10">8</text><rect x="364" y="55" width="42" height="42" fill="rgb(243,243,255)" stroke="white"/><text x="385.0" y="80.0" text-anchor="middle" font-size="10">10</text><rect x="406" y="55" width="42" height="42" fill="rgb(238,238,255)" stroke="white"/><text x="427.0" y="80.0" text-anchor="middle" font-size="10">40</text><rect x="448" y="55" width="42" height="42" fill="rgb(244,244,255)" stroke="white"/><text x="469.0" y="80.0" text-anchor="middle" font-size="10">3</text><rect x="70" y="97" width="42" height="42" fill="rgb(244,244,255)" stroke="white"/><text x="91.0" y="122.0" text-anchor="middle" font-size="10">1</text><rect x="112" y="97" width="42" height="42" fill="rgb(55,55,255)" stroke="white"/><text x="133.0" y="122.0" text-anchor="middle" font-size="10">1114</text><rect x="154" y="97" width="42" height="42" fill="rgb(244,244,255)" stroke="white"/><text x="175.0" y="122.0" text-anchor="middle" font-size="10">2</text><rect x="196" y="97" width="42" height="42" fill="rgb(244,244,255)" stroke="white"/><text x="217.0" y="122.0" text-anchor="middle" font-size="10">1</text><rect x="238" y="97" width="42" height="42" fill="rgb(244,244,255)" stroke="white"/><text x="259.0" y="122.0" text-anchor="middle" font-size="10">3</text><rect x="280" y="97" width="42" height="42" fill="rgb(245,245,255)" stroke="white"/><text x="301.0" y="122.0" text-anchor="middle" font-size="10">0</text><rect x="322" y="97" width="42" height="42" fill="rgb(244,244,255)" stroke="white"/><text x="343.0" y="122.0" text-anchor="middle" font-size="10">3</text><rect x="364" y="97" width="42" height="42" fill="rgb(245,245,255)" stroke="white"/><text x="385.0" y="122.0" text-anchor="middle" font-size="10">0</text><rect x="406" y="97" width="42" height="42" fill="rgb(243,243,255)" stroke="white"/><text x="427.0" y="122.0" text-anchor="middle" font-size="10">10</text><rect x="448" y="97" width="42" height="42" fill="rgb(244,244,255)" stroke="white"/><text x="469.0" y="122.0" text-anchor="middle" font-size="10">1</text><rect x="70" y="139" width="42" height="42" fill="rgb(241,241,255)" stroke="white"/><text x="91.0" y="164.0" text-anchor="middle" font-size="10">19</text><rect x="112" y="139" width="42" height="42" fill="rgb(241,241,255)" stroke="white"/><text x="133.0" y="164.0" text-anchor="middle" font-size="10">23</text><rect x="154" y="139" width="42" height="42" fill="rgb(125,125,255)" stroke="white"/><text x="175.0" y="164.0" text-anchor="middle" font-size="10">702</text><rect x="196" y="139" width="42" height="42" fill="rgb(244,244,255)" stroke="white"/><text x="217.0" y="164.0" text-anchor="middle" font-size="10">3</text><rect x="238" y="139" width="42" height="42" fill="rgb(243,243,255)" stroke="white"/><text x="259.0" y="164.0" text-anchor="middle" font-size="10">6</text><rect x="280" y="139" width="42" height="42" fill="rgb(244,244,255)" stroke="white"/><text x="301.0" y="164.0" text-anchor="middle" font-size="10">4</text><rect x="322" y="139" width="42" height="42" fill="rgb(235,235,255)" stroke="white"/><text x="343.0" y="164.0" text-anchor="middle" font-size="10">58</text><rect x="364" y="139" width="42" height="42" fill="rgb(242,242,255)" stroke="white"/><text x="385.0" y="164.0" text-anchor="middle" font-size="10">17</text><rect x="406" y="139" width="42" height="42" fill="rgb(212,212,255)" stroke="white"/><text x="427.0" y="164.0" text-anchor="middle" font-size="10">190</text><rect x="448" y="139" width="42" height="42" fill="rgb(243,243,255)" stroke="white"/><text x="469.0" y="164.0" text-anchor="middle" font-size="10">10</text><rect x="70" y="181" width="42" height="42" fill="rgb(237,237,255)" stroke="white"/><text x="91.0" y="206.0" text-anchor="middle" font-size="10">46</text><rect x="112" y="181" width="42" height="42" fill="rgb(234,234,255)" stroke="white"/><text x="133.0" y="206.0" text-anchor="middle" font-size="10">59</text><rect x="154" y="181" width="42" height="42" fill="rgb(242,242,255)" stroke="white"/><text x="175.0" y="206.0" text-anchor="middle" font-size="10">14</text><rect x="196" y="181" width="42" height="42" fill="rgb(134,134,255)" stroke="white"/><text x="217.0" y="206.0" text-anchor="middle" font-size="10">648</text><rect x="238" y="181" width="42" height="42" fill="rgb(244,244,255)" stroke="white"/><text x="259.0" y="206.0" text-anchor="middle" font-size="10">3</text><rect x="280" y="181" width="42" height="42" fill="rgb(236,236,255)" stroke="white"/><text x="301.0" y="206.0" text-anchor="middle" font-size="10">50</text><rect x="322" y="181" width="42" height="42" fill="rgb(243,243,255)" stroke="white"/><text x="343.0" y="206.0" text-anchor="middle" font-size="10">7</text><rect x="364" y="181" width="42" height="42" fill="rgb(240,240,255)" stroke="white"/><text x="385.0" y="206.0" text-anchor="middle" font-size="10">24</text><rect x="406" y="181" width="42" height="42" fill="rgb(222,222,255)" stroke="white"/><text x="427.0" y="206.0" text-anchor="middle" font-size="10">131</text><rect x="448" y="181" width="42" height="42" fill="rgb(240,240,255)" stroke="white"/><text x="469.0" y="206.0" text-anchor="middle" font-size="10">28</text><rect x="70" y="223" width="42" height="42" fill="rgb(245,245,255)" stroke="white"/><text x="91.0" y="248.0" text-anchor="middle" font-size="10">0</text><rect x="112" y="223" width="42" height="42" fill="rgb(243,243,255)" stroke="white"/><text x="133.0" y="248.0" text-anchor="middle" font-size="10">11</text><rect x="154" y="223" width="42" height="42" fill="rgb(196,196,255)" stroke="white"/><text x="175.0" y="248.0" text-anchor="middle" font-size="10">286</text><rect x="196" y="223" width="42" height="42" fill="rgb(245,245,255)" stroke="white"/><text x="217.0" y="248.0" text-anchor="middle" font-size="10">0</text><rect x="238" y="223" width="42" height="42" fill="rgb(189,189,255)" stroke="white"/><text x="259.0" y="248.0" text-anchor="middle" font-size="10">326</text><rect x="280" y="223" width="42" height="42" fill="rgb(245,245,255)" stroke="white"/><text x="301.0" y="248.0" text-anchor="middle" font-size="10">0</text><rect x="322" y="223" width="42" height="42" fill="rgb(243,243,255)" stroke="white"/><text x="343.0" y="248.0" text-anchor="middle" font-size="10">11</text><rect x="364" y="223" width="42" height="42" fill="rgb(244,244,255)" stroke="white"/><text x="385.0" y="248.0" text-anchor="middle" font-size="10">5</text><rect x="406" y="223" width="42" height="42" fill="rgb(243,243,255)" stroke="white"/><text x="427.0" y="248.0" text-anchor="middle" font-size="10">10</text><rect x="448" y="223" width="42" height="42" fill="rgb(188,188,255)" stroke="white"/><text x="469.0" y="248.0" text-anchor="middle" font-size="10">333</text><rect x="70" y="265" width="42" height="42" fill="rgb(227,227,255)" stroke="white"/><text x="91.0" y="290.0" text-anchor="middle" font-size="10">101</text><rect x="112" y="265" width="42" height="42" fill="rgb(235,235,255)" stroke="white"/><text x="133.0" y="290.0" text-anchor="middle" font-size="10">55</text><rect x="154" y="265" width="42" height="42" fill="rgb(239,239,255)" stroke="white"/><text x="175.0" y="290.0" text-anchor="middle" font-size="10">30</text><rect x="196" y="265" width="42" height="42" fill="rgb(230,230,255)" stroke="white"/><text x="217.0" y="290.0" text-anchor="middle" font-size="10">84</text><rect x="238" y="265" width="42" height="42" fill="rgb(244,244,255)" stroke="white"/><text x="259.0" y="290.0" text-anchor="middle" font-size="10">5</text><rect x="280" y="265" width="42" height="42" fill="rgb(205,205,255)" stroke="white"/><text x="301.0" y="290.0" text-anchor="middle" font-size="10">231</text><rect x="322" y="265" width="42" height="42" fill="rgb(242,242,255)" stroke="white"/><text x="343.0" y="290.0" text-anchor="middle" font-size="10">13</text><rect x="364" y="265" width="42" height="42" fill="rgb(234,234,255)" stroke="white"/><text x="385.0" y="290.0" text-anchor="middle" font-size="10">63</text><rect x="406" y="265" width="42" height="42" fill="rgb(197,197,255)" stroke="white"/><text x="427.0" y="290.0" text-anchor="middle" font-size="10">281</text><rect x="448" y="265" width="42" height="42" fill="rgb(240,240,255)" stroke="white"/><text x="469.0" y="290.0" text-anchor="middle" font-size="10">29</text><rect x="70" y="307" width="42" height="42" fill="rgb(243,243,255)" stroke="white"/><text x="91.0" y="332.0" text-anchor="middle" font-size="10">11</text><rect x="112" y="307" width="42" height="42" fill="rgb(243,243,255)" stroke="white"/><text x="133.0" y="332.0" text-anchor="middle" font-size="10">6</text><rect x="154" y="307" width="42" height="42" fill="rgb(210,210,255)" stroke="white"/><text x="175.0" y="332.0" text-anchor="middle" font-size="10">201</text><rect x="196" y="307" width="42" height="42" fill="rgb(245,245,255)" stroke="white"/><text x="217.0" y="332.0" text-anchor="middle" font-size="10">0</text><rect x="238" y="307" width="42" height="42" fill="rgb(244,244,255)" stroke="white"/><text x="259.0" y="332.0" text-anchor="middle" font-size="10">1</text><rect x="280" y="307" width="42" height="42" fill="rgb(244,244,255)" stroke="white"/><text x="301.0" y="332.0" text-anchor="middle" font-size="10">1</text><rect x="322" y="307" width="42" height="42" fill="rgb(128,128,255)" stroke="white"/><text x="343.0" y="332.0" text-anchor="middle" font-size="10">682</text><rect x="364" y="307" width="42" height="42" fill="rgb(244,244,255)" stroke="white"/><text x="385.0" y="332.0" text-anchor="middle" font-size="10">3</text><rect x="406" y="307" width="42" height="42" fill="rgb(236,236,255)" stroke="white"/><text x="427.0" y="332.0" text-anchor="middle" font-size="10">52</text><rect x="448" y="307" width="42" height="42" fill="rgb(244,244,255)" stroke="white"/><text x="469.0" y="332.0" text-anchor="middle" font-size="10">1</text><rect x="70" y="349" width="42" height="42" fill="rgb(244,244,255)" stroke="white"/><text x="91.0" y="374.0" text-anchor="middle" font-size="10">2</text><rect x="112" y="349" width="42" height="42" fill="rgb(238,238,255)" stroke="white"/><text x="133.0" y="374.0" text-anchor="middle" font-size="10">41</text><rect x="154" y="349" width="42" height="42" fill="rgb(238,238,255)" stroke="white"/><text x="175.0" y="374.0" text-anchor="middle" font-size="10">38</text><rect x="196" y="349" width="42" height="42" fill="rgb(245,245,255)" stroke="white"/><text x="217.0" y="374.0" text-anchor="middle" font-size="10">0</text><rect x="238" y="349" width="42" height="42" fill="rgb(243,243,255)" stroke="white"/><text x="259.0" y="374.0" text-anchor="middle" font-size="10">9</text><rect x="280" y="349" width="42" height="42" fill="rgb(245,245,255)" stroke="white"/><text x="301.0" y="374.0" text-anchor="middle" font-size="10">0</text><rect x="322" y="349" width="42" height="42" fill="rgb(244,244,255)" stroke="white"/><text x="343.0" y="374.0" text-anchor="middle" font-size="10">1</text><rect x="364" y="349" width="42" height="42" fill="rgb(105,105,255)" stroke="white"/><text x="385.0" y="374.0" text-anchor="middle" font-size="10">817</text><rect x="406" y="349" width="42" height="42" fill="rgb(244,244,255)" stroke="white"/><text x="427.0" y="374.0" text-anchor="middle" font-size="10">4</text><rect x="448" y="349" width="42" height="42" fill="rgb(225,225,255)" stroke="white"/><text x="469.0" y="374.0" text-anchor="middle" font-size="10">116</text><rect x="70" y="391" width="42" height="42" fill="rgb(242,242,255)" stroke="white"/><text x="91.0" y="416.0" text-anchor="middle" font-size="10">16</text><rect x="112" y="391" width="42" height="42" fill="rgb(235,235,255)" stroke="white"/><text x="133.0" y="416.0" text-anchor="middle" font-size="10">53</text><rect x="154" y="391" width="42" height="42" fill="rgb(239,239,255)" stroke="white"/><text x="175.0" y="416.0" text-anchor="middle" font-size="10">34</text><rect x="196" y="391" width="42" height="42" fill="rgb(243,243,255)" stroke="white"/><text x="217.0" y="416.0" text-anchor="middle" font-size="10">11</text><rect x="238" y="391" width="42" height="42" fill="rgb(243,243,255)" stroke="white"/><text x="259.0" y="416.0" text-anchor="middle" font-size="10">9</text><rect x="280" y="391" width="42" height="42" fill="rgb(243,243,255)" stroke="white"/><text x="301.0" y="416.0" text-anchor="middle" font-size="10">8</text><rect x="322" y="391" width="42" height="42" fill="rgb(244,244,255)" stroke="white"/><text x="343.0" y="416.0" text-anchor="middle" font-size="10">3</text><rect x="364" y="391" width="42" height="42" fill="rgb(244,244,255)" stroke="white"/><text x="385.0" y="416.0" text-anchor="middle" font-size="10">5</text><rect x="406" y="391" width="42" height="42" fill="rgb(103,103,255)" stroke="white"/><text x="427.0" y="416.0" text-anchor="middle" font-size="10">830</text><rect x="448" y="391" width="42" height="42" fill="rgb(244,244,255)" stroke="white"/><text x="469.0" y="416.0" text-anchor="middle" font-size="10">5</text><rect x="70" y="433" width="42" height="42" fill="rgb(244,244,255)" stroke="white"/><text x="91.0" y="458.0" text-anchor="middle" font-size="10">3</text><rect x="112" y="433" width="42" height="42" fill="rgb(237,237,255)" stroke="white"/><text x="133.0" y="458.0" text-anchor="middle" font-size="10">43</text><rect x="154" y="433" width="42" height="42" fill="rgb(225,225,255)" stroke="white"/><text x="175.0" y="458.0" text-anchor="middle" font-size="10">113</text><rect x="196" y="433" width="42" height="42" fill="rgb(244,244,255)" stroke="white"/><text x="217.0" y="458.0" text-anchor="middle" font-size="10">2</text><rect x="238" y="433" width="42" height="42" fill="rgb(232,232,255)" stroke="white"/><text x="259.0" y="458.0" text-anchor="middle" font-size="10">75</text><rect x="280" y="433" width="42" height="42" fill="rgb(243,243,255)" stroke="white"/><text x="301.0" y="458.0" text-anchor="middle" font-size="10">7</text><rect x="322" y="433" width="42" height="42" fill="rgb(244,244,255)" stroke="white"/><text x="343.0" y="458.0" text-anchor="middle" font-size="10">3</text><rect x="364" y="433" width="42" height="42" fill="rgb(238,238,255)" stroke="white"/><text x="385.0" y="458.0" text-anchor="middle" font-size="10">41</text><rect x="406" y="433" width="42" height="42" fill="rgb(241,241,255)" stroke="white"/><text x="427.0" y="458.0" text-anchor="middle" font-size="10">18</text><rect x="448" y="433" width="42" height="42" fill="rgb(124,124,255)" stroke="white"/><text x="469.0" y="458.0" text-anchor="middle" font-size="10">704</text><text x="91.0" y="493" text-anchor="middle" font-size="11">0</text><text x="58" y="80.0" text-anchor="middle" font-size="11">0</text><text x="133.0" y="493" text-anchor="middle" font-size="11">1</text><text x="58" y="122.0" text-anchor="middle" font-size="11">1</text><text x="175.0" y="493" text-anchor="middle" font-size="11">2</text><text x="58" y="164.0" text-anchor="middle" font-size="11">2</text><text x="217.0" y="493" text-anchor="middle" font-size="11">3</text><text x="58" y="206.0" text-anchor="middle" font-size="11">3</text><text x="259.0" y="493" text-anchor="middle" font-size="11">4</text><text x="58" y="248.0" text-anchor="middle" font-size="11">4</text><text x="301.0" y="493" text-anchor="middle" font-size="11">5</text><text x="58" y="290.0" text-anchor="middle" font-size="11">5</text><text x="343.0" y="493" text-anchor="middle" font-size="11">6</text><text x="58" y="332.0" text-anchor="middle" font-size="11">6</text><text x="385.0" y="493" text-anchor="middle" font-size="11">7</text><text x="58" y="374.0" text-anchor="middle" font-size="11">7</text><text x="427.0" y="493" text-anchor="middle" font-size="11">8</text><text x="58" y="416.0" text-anchor="middle" font-size="11">8</text><text x="469.0" y="493" text-anchor="middle" font-size="11">9</text><text x="58" y="458.0" text-anchor="middle" font-size="11">9</text><text x="280.0" y="527" text-anchor="middle" font-size="13">Predicted class</text><text x="18" y="265.0" transform="rotate(-90 18 265.0)" text-anchor="middle" font-size="13">True class</text></svg>