<svg xmlns="http://www.w3.org/2000/svg" width="1100" height="560" viewBox="0 0 1100 560"><rect width="100%" height="100%" fill="white"/><line x1="85" y1="490" x2="880" y2="490" stroke="#222"/><line x1="85" y1="490" x2="85" y2="55" stroke="#222"/><line x1="85.0" y1="490" x2="85.0" y2="495" stroke="#555"/><text x="85.0" y="512" text-anchor="middle" font-size="11">0.10</text><line x1="80" y1="490.0" x2="85" y2="490.0" stroke="#555"/><text x="76" y="494.0" text-anchor="end" font-size="11">0.0985</text><line x1="85" y1="490.0" x2="880" y2="490.0" stroke="#ddd" stroke-width="0.7"/><line x1="244.0" y1="490" x2="244.0" y2="495" stroke="#555"/><text x="244.0" y="512" text-anchor="middle" font-size="11">0.28</text><line x1="80" y1="403.0" x2="85" y2="403.0" stroke="#555"/><text x="76" y="407.0" text-anchor="end" font-size="11">0.287</text><line x1="85" y1="403.0" x2="880" y2="403.0" stroke="#ddd" stroke-width="0.7"/><line x1="403.0" y1="490" x2="403.0" y2="495" stroke="#555"/><text x="403.0" y="512" text-anchor="middle" font-size="11">0.46</text><line x1="80" y1="316.0" x2="85" y2="316.0" stroke="#555"/><text x="76" y="320.0" text-anchor="end" font-size="11">0.476</text><line x1="85" y1="316.0" x2="880" y2="316.0" stroke="#ddd" stroke-width="0.7"/><line x1="562.0" y1="490" x2="562.0" y2="495" stroke="#555"/><text x="562.0" y="512" text-anchor="middle" font-size="11">0.64</text><line x1="80" y1="229.0" x2="85" y2="229.0" stroke="#555"/><text x="76" y="233.0" text-anchor="end" font-size="11">0.665</text><line x1="85" y1="229.0" x2="880" y2="229.0" stroke="#ddd" stroke-width="0.7"/><line x1="721.0" y1="490" x2="721.0" y2="495" stroke="#555"/><text x="721.0" y="512" text-anchor="middle" font-size="11">0.82</text><line x1="80" y1="142.0" x2="85" y2="142.0" stroke="#555"/><text x="76" y="146.0" text-anchor="end" font-size="11">0.854</text><line x1="85" y1="142.0" x2="880" y2="142.0" stroke="#ddd" stroke-width="0.7"/><line x1="880.0" y1="490" x2="880.0" y2="495" stroke="#555"/><text x="880.0" y="512" text-anchor="middle" font-size="11">1.00</text><line x1="80" y1="55.0" x2="85" y2="55.0" stroke="#555"/><text x="76" y="59.0" text-anchor="end" font-size="11">1.04</text><line x1="85" y1="55.0" x2="880" y2="55.0" stroke="#ddd" stroke-width="0.7"/><polyline points="85.0,441.9 173.3,388.0 261.7,317.4 350.0,283.1 438.3,252.5 526.7,265.0 615.0,245.0 703.3,276.2 791.7,328.8 880.0,450.7" fill="none" stroke="#1f77b4" stroke-width="2"/><circle cx="85.0" cy="441.9" r="2.5" fill="#1f77b4"/><circle cx="173.3" cy="388.0" r="2.5" fill="#1f77b4"/><circle cx="261.7" cy="317.4" r="2.5" fill="#1f77b4"/><circle cx="350.0" cy="283.1" r="2.5" fill="#1f77b4"/><circle cx="438.3" cy="252.5" r="2.5" fill="#1f77b4"/><circle cx="526.7" cy="265.0" r="2.5" fill="#1f77b4"/><circle cx="615.0" cy="245.0" r="2.5" fill="#1f77b4"/><circle cx="703.3" cy="276.2" r="2.5" fill="#1f77b4"/><circle cx="791.7" cy="328.8" r="2.5" fill="#1f77b4"/><circle cx="880.0" cy="450.7" r="2.5" fill="#1f77b4"/><line x1="898" y1="75" x2="922" y2="75" stroke="#1f77b4" stroke-width="3"/><text x="928" y="79" font-size="10">p4_refdiag_balanced_heterogeneous</text><polyline points="85.0,448.4 173.3,417.1 261.7,370.2 350.0,360.7 438.3,300.5 526.7,304.4 615.0,267.3 703.3,298.1 791.7,338.0 880.0,450.8" fill="none" stroke="#d62728" stroke-width="2"/><circle cx="85.0" cy="448.4" r="2.5" fill="#d62728"/><circle cx="173.3" cy="417.1" r="2.5" fill="#d62728"/><circle cx="261.7" cy="370.2" r="2.5" fill="#d62728"/><circle cx="350.0" cy="360.7" r="2.5" fill="#d62728"/><circle cx="438.3" cy="300.5" r="2.5" fill="#d62728"/><circle cx="526.7" cy="304.4" r="2.5" fill="#d62728"/><circle cx="615.0" cy="267.3" r="2.5" fill="#d62728"/><circle cx="703.3" cy="298.1" r="2.5" fill="#d62728"/><circle cx="791.7" cy="338.0" r="2.5" fill="#d62728"/><circle cx="880.0" cy="450.8" r="2.5" fill="#d62728"/><line x1="898" y1="95" x2="922" y2="95" stroke="#d62728" stroke-width="3"/><text x="928" y="99" font-size="10">p4_freeze_balanced_heterogeneous</text><polyline points="85.0,444.9 173.3,384.1 261.7,316.6 350.0,293.9 438.3,257.9 526.7,278.9 615.0,265.0 703.3,287.4 791.7,403.0 880.0,451.0" fill="none" stroke="#2ca02c" stroke-width="2"/><circle cx="85.0" cy="444.9" r="2.5" fill="#2ca02c"/><circle cx="173.3" cy="384.1" r="2.5" fill="#2ca02c"/><circle cx="261.7" cy="316.6" r="2.5" fill="#2ca02c"/><circle cx="350.0" cy="293.9" r="2.5" fill="#2ca02c"/><circle cx="438.3" cy="257.9" r="2.5" fill="#2ca02c"/><circle cx="526.7" cy="278.9" r="2.5" fill="#2ca02c"/><circle cx="615.0" cy="265.0" r="2.5" fill="#2ca02c"/><circle cx="703.3" cy="287.4" r="2.5" fill="#2ca02c"/><circle cx="791.7" cy="403.0" r="2.5" fill="#2ca02c"/><circle cx="880.0" cy="451.0" r="2.5" fill="#2ca02c"/><line x1="898" y1="115" x2="922" y2="115" stroke="#2ca02c" stroke-width="3"/><text x="928" y="119" font-size="10">p4_strong_balanced_heterogeneous</text><polyline points="85.0,360.3 173.3,223.3 261.7,150.2 350.0,157.2 438.3,148.1 526.7,100.8 615.0,118.0 703.3,137.4 791.7,152.2 880.0,170.9" fill="none" stroke="#9467bd" stroke-width="2"/><circle cx="85.0" cy="360.3" r="2.5" fill="#9467bd"/><circle cx="173.3" cy="223.3" r="2.5" fill="#9467bd"/><circle cx="261.7" cy="150.2" r="2.5" fill="#9467bd"/><circle cx="350.0" cy="157.2" r="2.5" fill="#9467bd"/><circle cx="438.3" cy="148.1" r="2.5" fill="#9467bd"/><circle cx="526.7" cy="100.8" r="2.5" fill="#9467bd"/><circle cx="615.0" cy="118.0" r="2.5" fill="#9467bd"/><circle cx="703.3" cy="137.4" r="2.5" fill="#9467bd"/><circle cx="791.7" cy="152.2" r="2.5" fill="#9467bd"/><circle cx="880.0" cy="170.9" r="2.5" fill="#9467bd"/><line x1="898" y1="135" x2="922" y2="135" stroke="#9467bd" stroke-width="3"/><text x="928" y="139" font-size="10">p4_freeze_double_imbalance</text><polyline points="85.0,272.8 173.3,202.2 261.7,128.8 350.0,123.2 438.3,120.4 526.7,85.0 615.0,97.2 703.3,122.4 791.7,173.5 880.0,191.1" fill="none" stroke="#ff7f0e" stroke-width="2"/><circle cx="85.0" cy="272.8" r="2.5" fill="#ff7f0e"/><circle cx="173.3" cy="202.2" r="2.5" fill="#ff7f0e"/><circle cx="261.7" cy="128.8" r="2.5" fill="#ff7f0e"/><circle cx="350.0" cy="123.2" r="2.5" fill="#ff7f0e"/><circle cx="438.3" cy="120.4" r="2.5" fill="#ff7f0e"/><circle cx="526.7" cy="85.0" r="2.5" fill="#ff7f0e"/><circle cx="615.0" cy="97.2" r="2.5" fill="#ff7f0e"/><circle cx="703.3" cy="122.4" r="2.5" fill="#ff7f0e"/><circle cx="791.7" cy="173.5" r="2.5" fill="#ff7f0e"/><circle cx="880.0" cy="191.1" r="2.5" fill="#ff7f0e"/><line x1="898" y1="155" x2="922" y2="155" stroke="#ff7f0e" stroke-width="3"/><text x="928" y="159" font-size="10">p4_strong_double_imbalance</text><polyline points="85.0,460.0 173.3,387.2 261.7,412.5 350.0,315.2 438.3,310.2 526.7,295.1 615.0,290.4 703.3,289.2 791.7,245.7 880.0,153.6" fill="none" stroke="#17becf" stroke-width="2"/><circle cx="85.0" cy="460.0" r="2.5" fill="#17becf"/><circle cx="173.3" cy="387.2" r="2.5" fill="#17becf"/><circle cx="261.7" cy="412.5" r="2.5" fill="#17becf"/><circle cx="350.0" cy="315.2" r="2.5" fill="#17becf"/><circle cx="438.3" cy="310.2" r="2.5" fill="#17becf"/><circle cx="526.7" cy="295.1" r="2.5" fill="#17becf"/><circle cx="615.0" cy="290.4" r="2.5" fill="#17becf"/><circle cx="703.3" cy="289.2" r="2.5" fill="#17becf"/><circle cx="791.7" cy="245.7" r="2.5" fill="#17becf"/><circle cx="880.0" cy="153.6" r="2.5" fill="#17becf"/><line x1="898" y1="175" x2="922" y2="175" stroke="#17becf" stroke-width="3"/><text x="928" y="179" font-size="10">p5_freeze_uniform_055</text><polyline points="85.0,444.1 173.3,322.9 261.7,291.6 350.0,216.8 438.3,175.2 526.7,173.4 615.0,158.3 703.3,150.4 791.7,149.8 880.0,143.3" fill="none" stroke="#8c564b" stroke-width="2"/><circle cx="85.0" cy="444.1" r="2.5" fill="#8c564b"/><circle cx="173.3" cy="322.9" r="2.5" fill="#8c564b"/><circle cx="261.7" cy="291.6" r="2.5" fill="#8c564b"/><circle cx="350.0" cy="216.8" r="2.5" fill="#8c564b"/><circle cx="438.3" cy="175.2" r="2.5" fill="#8c564b"/><circle cx="526.7" cy="173.4" r="2.5" fill="#8c564b"/><circle cx="615.0" cy="158.3" r="2.5" fill="#8c564b"/><circle cx="703.3" cy="150.4" r="2.5" fill="#8c564b"/><circle cx="791.7" cy="149.8" r="2.5" fill="#8c564b"/><circle cx="880.0" cy="143.3" r="2.5" fill="#8c564b"/><line x1="898" y1="195" x2="922" y2="195" stroke="#8c564b" stroke-width="3"/><text x="928" y="199" font-size="10">p5_strong_uniform_055</text><polyline points="85.0,448.4 173.3,417.1 261.7,370.2 350.0,360.7 438.3,300.5 526.7,304.4 615.0,267.3 703.3,298.1 791.7,338.0 880.0,450.8" fill="none" stroke="#e377c2" stroke-width="2"/><circle cx="85.0" cy="448.4" r="2.5" fill="#e377c2"/><circle cx="173.3" cy="417.1" r="2.5" fill="#e377c2"/><circle cx="261.7" cy="370.2" r="2.5" fill="#e377c2"/><circle cx="350.0" cy="360.7" r="2.5" fill="#e377c2"/><circle cx="438.3" cy="300.5" r="2.5" fill="#e377c2"/><circle cx="526.7" cy="304.4" r="2.5" fill="#e377c2"/><circle cx="615.0" cy="267.3" r="2.5" fill="#e377c2"/><circle cx="703.3" cy="298.1" r="2.5" fill="#e377c2"/><circle cx="791.7" cy="338.0" r="2.5" fill="#e377c2"/><circle cx="880.0" cy="450.8" r="2.5" fill="#e377c2"/><line x1="898" y1="215" x2="922" y2="215" stroke="#e377c2" stroke-width="3"/><text x="928" y="219" font-size="10">p6_freeze_gamma_000</text><polyline points="85.0,445.5 173.3,391.0 261.7,316.2 350.0,249.7 438.3,218.0 526.7,212.9 615.0,197.6 703.3,191.7 791.7,188.9 880.0,204.9" fill="none" stroke="#7f7f7f" stroke-width="2"/><circle cx="85.0" cy="445.5" r="2.5" fill="#7f7f7f"/><circle cx="173.3" cy="391.0" r="2.5" fill="#7f7f7f"/><circle cx="261.7" cy="316.2" r="2.5" fill="#7f7f7f"/><circle cx="350.0" cy="249.7" r="2.5" fill="#7f7f7f"/><circle cx="438.3" cy="218.0" r="2.5" fill="#7f7f7f"/><circle cx="526.7" cy="212.9" r="2.5" fill="#7f7f7f"/><circle cx="615.0" cy="197.6" r="2.5" fill="#7f7f7f"/><circle cx="703.3" cy="191.7" r="2.5" fill="#7f7f7f"/><circle cx="791.7" cy="188.9" r="2.5" fill="#7f7f7f"/><circle cx="880.0" cy="204.9" r="2.5" fill="#7f7f7f"/><line x1="898" y1="235" x2="922" y2="235" stroke="#7f7f7f" stroke-width="3"/><text x="928" y="239" font-size="10">p6_freeze_gamma_050</text><polyline points="85.0,445.9 173.3,387.6 261.7,302.8 350.0,238.8 438.3,222.7 526.7,218.6 615.0,214.8 703.3,206.9 791.7,203.4 880.0,204.6" fill="none" stroke="#bcbd22" stroke-width="2"/><circle cx="85.0" cy="445.9" r="2.5" fill="#bcbd22"/><circle cx="173.3" cy="387.6" r="2.5" fill="#bcbd22"/><circle cx="261.7" cy="302.8" r="2.5" fill="#bcbd22"/><circle cx="350.0" cy="238.8" r="2.5" fill="#bcbd22"/><circle cx="438.3" cy="222.7" r="2.5" fill="#bcbd22"/><circle cx="526.7" cy="218.6" r="2.5" fill="#bcbd22"/><circle cx="615.0" cy="214.8" r="2.5" fill="#bcbd22"/><circle cx="703.3" cy="206.9" r="2.5" fill="#bcbd22"/><circle cx="791.7" cy="203.4" r="2.5" fill="#bcbd22"/><circle cx="880.0" cy="204.6" r="2.5" fill="#bcbd22"/><line x1="898" y1="255" x2="922" y2="255" stroke="#bcbd22" stroke-width="3"/><text x="928" y="259" font-size="10">p6_freeze_gamma_100</text><text x="482.5" y="540" text-anchor="middle" font-size="14">Retained rank ratio</text><text x="20" y="272.5" transform="rotate(-90 20 272.5)" text-anchor="middle" font-size="14">Accuracy</text><text x="482.5" y="26" text-anchor="middle" font-size="17" font-weight="bold">P4 Accuracy vs retained rank</text></svg>