<svg xmlns="http://www.w3.org/2000/svg" width="530" height="545"><rect width="100%" height="100%" fill="white"/><text x="265.0" y="25" text-anchor="middle" font-size="16" font-weight="bold">p4_freeze_balanced_heterogeneous: full rank</text><rect x="70" y="55" width="42" height="42" fill="rgb(245,245,255)" stroke="white"/><text x="91.0" y="80.0" text-anchor="middle" font-size="10">0</text><rect x="112" y="55" width="42" height="42" fill="rgb(245,245,255)" stroke="white"/><text x="133.0" y="80.0" text-anchor="middle" font-size="10">0</text><rect x="154" y="55" width="42" height="42" fill="rgb(245,245,255)" stroke="white"/><text x="175.0" y="80.0" text-anchor="middle" font-size="10">0</text><rect x="196" y="55" width="42" height="42" fill="rgb(245,245,255)" stroke="white"/><text x="217.0" y="80.0" text-anchor="middle" font-size="10">0</text><rect x="238" y="55" width="42" height="42" fill="rgb(245,245,255)" stroke="white"/><text x="259.0" y="80.0" text-anchor="middle" font-size="10">0</text><rect x="280" y="55" width="42" height="42" fill="rgb(120,120,255)" stroke="white"/><text x="301.0" y="80.0" text-anchor="middle" font-size="10">707</text><rect x="322" y="55" width="42" height="42" fill="rgb(197,197,255)" stroke="white"/><text x="343.0" y="80.0" text-anchor="middle" font-size="10">273</text><rect x="364" y="55" width="42" height="42" fill="rgb(245,245,255)" stroke="white"/><text x="385.0" y="80.0" text-anchor="middle" font-size="10">0</text><rect x="406" y="55" width="42" height="42" fill="rgb(245,245,255)" stroke="white"/><text x="427.0" y="80.0" text-anchor="middle" font-size="10">0</text><rect x="448" y="55" width="42" height="42" fill="rgb(245,245,255)" stroke="white"/><text x="469.0" y="80.0" text-anchor="middle" font-size="10">0</text><rect x="70" y="97" width="42" height="42" fill="rgb(245,245,255)" stroke="white"/><text x="91.0" y="122.0" text-anchor="middle" font-size="10">0</text><rect x="112" y="97" width="42" height="42" fill="rgb(244,244,255)" stroke="white"/><text x="133.0" y="122.0" text-anchor="middle" font-size="10">5</text><rect x="154" y="97" width="42" height="42" fill="rgb(245,245,255)" stroke="white"/><text x="175.0" y="122.0" text-anchor="middle" font-size="10">0</text><rect x="196" y="97" width="42" height="42" fill="rgb(245,245,255)" stroke="white"/><text x="217.0" y="122.0" text-anchor="middle" font-size="10">0</text><rect x="238" y="97" width="42" height="42" fill="rgb(245,245,255)" stroke="white"/><text x="259.0" y="122.0" text-anchor="middle" font-size="10">0</text><rect x="280" y="97" width="42" height="42" fill="rgb(55,55,255)" stroke="white"/><text x="301.0" y="122.0" text-anchor="middle" font-size="10">1081</text><rect x="322" y="97" width="42" height="42" fill="rgb(236,236,255)" stroke="white"/><text x="343.0" y="122.0" text-anchor="middle" font-size="10">49</text><rect x="364" y="97" width="42" height="42" fill="rgb(245,245,255)" stroke="white"/><text x="385.0" y="122.0" text-anchor="middle" font-size="10">0</text><rect x="406" y="97" width="42" height="42" fill="rgb(245,245,255)" stroke="white"/><text x="427.0" y="122.0" text-anchor="middle" font-size="10">0</text><rect x="448" y="97" width="42" height="42" fill="rgb(245,245,255)" stroke="white"/><text x="469.0" y="122.0" text-anchor="middle" font-size="10">0</text><rect x="70" y="139" width="42" height="42" fill="rgb(245,245,255)" stroke="white"/><text x="91.0" y="164.0" text-anchor="middle" font-size="10">0</text><rect x="112" y="139" width="42" height="42" fill="rgb(245,245,255)" stroke="white"/><text x="133.0" y="164.0" text-anchor="middle" font-size="10">0</text><rect x="154" y="139" width="42" height="42" fill="rgb(244,244,255)" stroke="white"/><text x="175.0" y="164.0" text-anchor="middle" font-size="10">3</text><rect x="196" y="139" width="42" height="42" fill="rgb(245,245,255)" stroke="white"/><text x="217.0" y="164.0" text-anchor="middle" font-size="10">0</text><rect x="238" y="139" width="42" height="42" fill="rgb(245,245,255)" stroke="white"/><text x="259.0" y="164.0" text-anchor="middle" font-size="10">0</text><rect x="280" y="139" width="42" height="42" fill="rgb(153,153,255)" stroke="white"/><text x="301.0" y="164.0" text-anchor="middle" font-size="10">522</text><rect x="322" y="139" width="42" height="42" fill="rgb(155,155,255)" stroke="white"/><text x="343.0" y="164.0" text-anchor="middle" font-size="10">507</text><rect x="364" y="139" width="42" height="42" fill="rgb(245,245,255)" stroke="white"/><text x="385.0" y="164.0" text-anchor="middle" font-size="10">0</text><rect x="406" y="139" width="42" height="42" fill="rgb(245,245,255)" stroke="white"/><text x="427.0" y="164.0" text-anchor="middle" font-size="10">0</text><rect x="448" y="139" width="42" height="42" fill="rgb(245,245,255)" stroke="white"/><text x="469.0" y="164.0" text-anchor="middle" font-size="10">0</text><rect x="70" y="181" width="42" height="42" fill="rgb(245,245,255)" stroke="white"/><text x="91.0" y="206.0" text-anchor="middle" font-size="10">0</text><rect x="112" y="181" width="42" height="42" fill="rgb(245,245,255)" stroke="white"/><text x="133.0" y="206.0" text-anchor="middle" font-size="10">0</text><rect x="154" y="181" width="42" height="42" fill="rgb(245,245,255)" stroke="white"/><text x="175.0" y="206.0" text-anchor="middle" font-size="10">0</text><rect x="196" y="181" width="42" height="42" fill="rgb(245,245,255)" stroke="white"/><text x="217.0" y="206.0" text-anchor="middle" font-size="10">0</text><rect x="238" y="181" width="42" height="42" fill="rgb(245,245,255)" stroke="white"/><text x="259.0" y="206.0" text-anchor="middle" font-size="10">0</text><rect x="280" y="181" width="42" height="42" fill="rgb(69,69,255)" stroke="white"/><text x="301.0" y="206.0" text-anchor="middle" font-size="10">1000</text><rect x="322" y="181" width="42" height="42" fill="rgb(243,243,255)" stroke="white"/><text x="343.0" y="206.0" text-anchor="middle" font-size="10">10</text><rect x="364" y="181" width="42" height="42" fill="rgb(245,245,255)" stroke="white"/><text x="385.0" y="206.0" text-anchor="middle" font-size="10">0</text><rect x="406" y="181" width="42" height="42" fill="rgb(245,245,255)" stroke="white"/><text x="427.0" y="206.0" text-anchor="middle" font-size="10">0</text><rect x="448" y="181" width="42" height="42" fill="rgb(245,245,255)" stroke="white"/><text x="469.0" y="206.0" text-anchor="middle" font-size="10">0</text><rect x="70" y="223" width="42" height="42" fill="rgb(245,245,255)" stroke="white"/><text x="91.0" y="248.0" text-anchor="middle" font-size="10">0</text><rect x="112" y="223" width="42" height="42" fill="rgb(245,245,255)" stroke="white"/><text x="133.0" y="248.0" text-anchor="middle" font-size="10">0</text><rect x="154" y="223" width="42" height="42" fill="rgb(245,245,255)" stroke="white"/><text x="175.0" y="248.0" text-anchor="middle" font-size="10">0</text><rect x="196" y="223" width="42" height="42" fill="rgb(245,245,255)" stroke="white"/><text x="217.0" y="248.0" text-anchor="middle" font-size="10">0</text><rect x="238" y="223" width="42" height="42" fill="rgb(245,245,255)" stroke="white"/><text x="259.0" y="248.0" text-anchor="middle" font-size="10">0</text><rect x="280" y="223" width="42" height="42" fill="rgb(139,139,255)" stroke="white"/><text x="301.0" y="248.0" text-anchor="middle" font-size="10">598</text><rect x="322" y="223" width="42" height="42" fill="rgb(177,177,255)" stroke="white"/><text x="343.0" y="248.0" text-anchor="middle" font-size="10">383</text><rect x="364" y="223" width="42" height="42" fill="rgb(244,244,255)" stroke="white"/><text x="385.0" y="248.0" text-anchor="middle" font-size="10">1</text><rect x="406" y="223" width="42" height="42" fill="rgb(245,245,255)" stroke="white"/><text x="427.0" y="248.0" text-anchor="middle" font-size="10">0</text><rect x="448" y="223" width="42" height="42" fill="rgb(245,245,255)" stroke="white"/><text x="469.0" y="248.0" text-anchor="middle" font-size="10">0</text><rect x="70" y="265" width="42" height="42" fill="rgb(245,245,255)" stroke="white"/><text x="91.0" y="290.0" text-anchor="middle" font-size="10">0</text><rect x="112" y="265" width="42" height="42" fill="rgb(245,245,255)" stroke="white"/><text x="133.0" y="290.0" text-anchor="middle" font-size="10">0</text><rect x="154" y="265" width="42" height="42" fill="rgb(245,245,255)" stroke="white"/><text x="175.0" y="290.0" text-anchor="middle" font-size="10">0</text><rect x="196" y="265" width="42" height="42" fill="rgb(245,245,255)" stroke="white"/><text x="217.0" y="290.0" text-anchor="middle" font-size="10">0</text><rect x="238" y="265" width="42" height="42" fill="rgb(245,245,255)" stroke="white"/><text x="259.0" y="290.0" text-anchor="middle" font-size="10">0</text><rect x="280" y="265" width="42" height="42" fill="rgb(89,89,255)" stroke="white"/><text x="301.0" y="290.0" text-anchor="middle" font-size="10">883</text><rect x="322" y="265" width="42" height="42" fill="rgb(243,243,255)" stroke="white"/><text x="343.0" y="290.0" text-anchor="middle" font-size="10">9</text><rect x="364" y="265" width="42" height="42" fill="rgb(245,245,255)" stroke="white"/><text x="385.0" y="290.0" text-anchor="middle" font-size="10">0</text><rect x="406" y="265" width="42" height="42" fill="rgb(245,245,255)" stroke="white"/><text x="427.0" y="290.0" text-anchor="middle" font-size="10">0</text><rect x="448" y="265" width="42" height="42" fill="rgb(245,245,255)" stroke="white"/><text x="469.0" y="290.0" text-anchor="middle" font-size="10">0</text><rect x="70" y="307" width="42" height="42" fill="rgb(245,245,255)" stroke="white"/><text x="91.0" y="332.0" text-anchor="middle" font-size="10">0</text><rect x="112" y="307" width="42" height="42" fill="rgb(245,245,255)" stroke="white"/><text x="133.0" y="332.0" text-anchor="middle" font-size="10">0</text><rect x="154" y="307" width="42" height="42" fill="rgb(245,245,255)" stroke="white"/><text x="175.0" y="332.0" text-anchor="middle" font-size="10">0</text><rect x="196" y="307" width="42" height="42" fill="rgb(245,245,255)" stroke="white"/><text x="217.0" y="332.0" text-anchor="middle" font-size="10">0</text><rect x="238" y="307" width="42" height="42" fill="rgb(245,245,255)" stroke="white"/><text x="259.0" y="332.0" text-anchor="middle" font-size="10">0</text><rect x="280" y="307" width="42" height="42" fill="rgb(242,242,255)" stroke="white"/><text x="301.0" y="332.0" text-anchor="middle" font-size="10">17</text><rect x="322" y="307" width="42" height="42" fill="rgb(79,79,255)" stroke="white"/><text x="343.0" y="332.0" text-anchor="middle" font-size="10">941</text><rect x="364" y="307" width="42" height="42" fill="rgb(245,245,255)" stroke="white"/><text x="385.0" y="332.0" text-anchor="middle" font-size="10">0</text><rect x="406" y="307" width="42" height="42" fill="rgb(245,245,255)" stroke="white"/><text x="427.0" y="332.0" text-anchor="middle" font-size="10">0</text><rect x="448" y="307" width="42" height="42" fill="rgb(245,245,255)" stroke="white"/><text x="469.0" y="332.0" text-anchor="middle" font-size="10">0</text><rect x="70" y="349" width="42" height="42" fill="rgb(245,245,255)" stroke="white"/><text x="91.0" y="374.0" text-anchor="middle" font-size="10">0</text><rect x="112" y="349" width="42" height="42" fill="rgb(245,245,255)" stroke="white"/><text x="133.0" y="374.0" text-anchor="middle" font-size="10">0</text><rect x="154" y="349" width="42" height="42" fill="rgb(245,245,255)" stroke="white"/><text x="175.0" y="374.0" text-anchor="middle" font-size="10">0</text><rect x="196" y="349" width="42" height="42" fill="rgb(245,245,255)" stroke="white"/><text x="217.0" y="374.0" text-anchor="middle" font-size="10">0</text><rect x="238" y="349" width="42" height="42" fill="rgb(245,245,255)" stroke="white"/><text x="259.0" y="374.0" text-anchor="middle" font-size="10">0</text><rect x="280" y="349" width="42" height="42" fill="rgb(68,68,255)" stroke="white"/><text x="301.0" y="374.0" text-anchor="middle" font-size="10">1003</text><rect x="322" y="349" width="42" height="42" fill="rgb(241,241,255)" stroke="white"/><text x="343.0" y="374.0" text-anchor="middle" font-size="10">22</text><rect x="364" y="349" width="42" height="42" fill="rgb(244,244,255)" stroke="white"/><text x="385.0" y="374.0" text-anchor="middle" font-size="10">3</text><rect x="406" y="349" width="42" height="42" fill="rgb(245,245,255)" stroke="white"/><text x="427.0" y="374.0" text-anchor="middle" font-size="10">0</text><rect x="448" y="349" width="42" height="42" fill="rgb(245,245,255)" stroke="white"/><text x="469.0" y="374.0" text-anchor="middle" font-size="10">0</text><rect x="70" y="391" width="42" height="42" fill="rgb(245,245,255)" stroke="white"/><text x="91.0" y="416.0" text-anchor="middle" font-size="10">0</text><rect x="112" y="391" width="42" height="42" fill="rgb(245,245,255)" stroke="white"/><text x="133.0" y="416.0" text-anchor="middle" font-size="10">0</text><rect x="154" y="391" width="42" height="42" fill="rgb(245,245,255)" stroke="white"/><text x="175.0" y="416.0" text-anchor="middle" font-size="10">0</text><rect x="196" y="391" width="42" height="42" fill="rgb(245,245,255)" stroke="white"/><text x="217.0" y="416.0" text-anchor="middle" font-size="10">0</text><rect x="238" y="391" width="42" height="42" fill="rgb(245,245,255)" stroke="white"/><text x="259.0" y="416.0" text-anchor="middle" font-size="10">0</text><rect x="280" y="391" width="42" height="42" fill="rgb(81,81,255)" stroke="white"/><text x="301.0" y="416.0" text-anchor="middle" font-size="10">933</text><rect x="322" y="391" width="42" height="42" fill="rgb(237,237,255)" stroke="white"/><text x="343.0" y="416.0" text-anchor="middle" font-size="10">41</text><rect x="364" y="391" width="42" height="42" fill="rgb(245,245,255)" stroke="white"/><text x="385.0" y="416.0" text-anchor="middle" font-size="10">0</text><rect x="406" y="391" width="42" height="42" fill="rgb(245,245,255)" stroke="white"/><text x="427.0" y="416.0" text-anchor="middle" font-size="10">0</text><rect x="448" y="391" width="42" height="42" fill="rgb(245,245,255)" stroke="white"/><text x="469.0" y="416.0" text-anchor="middle" font-size="10">0</text><rect x="70" y="433" width="42" height="42" fill="rgb(245,245,255)" stroke="white"/><text x="91.0" y="458.0" text-anchor="middle" font-size="10">0</text><rect x="112" y="433" width="42" height="42" fill="rgb(245,245,255)" stroke="white"/><text x="133.0" y="458.0" text-anchor="middle" font-size="10">0</text><rect x="154" y="433" width="42" height="42" fill="rgb(244,244,255)" stroke="white"/><text x="175.0" y="458.0" text-anchor="middle" font-size="10">1</text><rect x="196" y="433" width="42" height="42" fill="rgb(245,245,255)" stroke="white"/><text x="217.0" y="458.0" text-anchor="middle" font-size="10">0</text><rect x="238" y="433" width="42" height="42" fill="rgb(245,245,255)" stroke="white"/><text x="259.0" y="458.0" text-anchor="middle" font-size="10">0</text><rect x="280" y="433" width="42" height="42" fill="rgb(80,80,255)" stroke="white"/><text x="301.0" y="458.0" text-anchor="middle" font-size="10">938</text><rect x="322" y="433" width="42" height="42" fill="rgb(232,232,255)" stroke="white"/><text x="343.0" y="458.0" text-anchor="middle" font-size="10">70</text><rect x="364" y="433" width="42" height="42" fill="rgb(245,245,255)" stroke="white"/><text x="385.0" y="458.0" text-anchor="middle" font-size="10">0</text><rect x="406" y="433" width="42" height="42" fill="rgb(245,245,255)" stroke="white"/><text x="427.0" y="458.0" text-anchor="middle" font-size="10">0</text><rect x="448" y="433" width="42" height="42" fill="rgb(245,245,255)" stroke="white"/><text x="469.0" y="458.0" text-anchor="middle" font-size="10">0</text><text x="91.0" y="493" text-anchor="middle" font-size="11">0</text><text x="58" y="80.0" text-anchor="middle" font-size="11">0</text><text x="133.0" y="493" text-anchor="middle" font-size="11">1</text><text x="58" y="122.0" text-anchor="middle" font-size="11">1</text><text x="175.0" y="493" text-anchor="middle" font-size="11">2</text><text x="58" y="164.0" text-anchor="middle" font-size="11">2</text><text x="217.0" y="493" text-anchor="middle" font-size="11">3</text><text x="58" y="206.0" text-anchor="middle" font-size="11">3</text><text x="259.0" y="493" text-anchor="middle" font-size="11">4</text><text x="58" y="248.0" text-anchor="middle" font-size="11">4</text><text x="301.0" y="493" text-anchor="middle" font-size="11">5</text><text x="58" y="290.0" text-anchor="middle" font-size="11">5</text><text x="343.0" y="493" text-anchor="middle" font-size="11">6</text><text x="58" y="332.0" text-anchor="middle" font-size="11">6</text><text x="385.0" y="493" text-anchor="middle" font-size="11">7</text><text x="58" y="374.0" text-anchor="middle" font-size="11">7</text><text x="427.0" y="493" text-anchor="middle" font-size="11">8</text><text x="58" y="416.0" text-anchor="middle" font-size="11">8</text><text x="469.0" y="493" text-anchor="middle" font-size="11">9</text><text x="58" y="458.0" text-anchor="middle" font-size="11">9</text><text x="280.0" y="527" text-anchor="middle" font-size="13">Predicted class</text><text x="18" y="265.0" transform="rotate(-90 18 265.0)" text-anchor="middle" font-size="13">True class</text></svg>