<svg xmlns="http://www.w3.org/2000/svg" width="1100" height="560" viewBox="0 0 1100 560"><rect width="100%" height="100%" fill="white"/><line x1="85" y1="490" x2="880" y2="490" stroke="#222"/><line x1="85" y1="490" x2="85" y2="55" stroke="#222"/><line x1="85.0" y1="490" x2="85.0" y2="495" stroke="#555"/><text x="85.0" y="512" text-anchor="middle" font-size="11">0.10</text><line x1="80" y1="490.0" x2="85" y2="490.0" stroke="#555"/><text x="76" y="494.0" text-anchor="end" font-size="11">-1.92</text><line x1="85" y1="490.0" x2="880" y2="490.0" stroke="#ddd" stroke-width="0.7"/><line x1="244.0" y1="490" x2="244.0" y2="495" stroke="#555"/><text x="244.0" y="512" text-anchor="middle" font-size="11">0.28</text><line x1="80" y1="403.0" x2="85" y2="403.0" stroke="#555"/><text x="76" y="407.0" text-anchor="end" font-size="11">3.9</text><line x1="85" y1="403.0" x2="880" y2="403.0" stroke="#ddd" stroke-width="0.7"/><line x1="403.0" y1="490" x2="403.0" y2="495" stroke="#555"/><text x="403.0" y="512" text-anchor="middle" font-size="11">0.46</text><line x1="80" y1="316.0" x2="85" y2="316.0" stroke="#555"/><text x="76" y="320.0" text-anchor="end" font-size="11">9.73</text><line x1="85" y1="316.0" x2="880" y2="316.0" stroke="#ddd" stroke-width="0.7"/><line x1="562.0" y1="490" x2="562.0" y2="495" stroke="#555"/><text x="562.0" y="512" text-anchor="middle" font-size="11">0.64</text><line x1="80" y1="229.0" x2="85" y2="229.0" stroke="#555"/><text x="76" y="233.0" text-anchor="end" font-size="11">15.6</text><line x1="85" y1="229.0" x2="880" y2="229.0" stroke="#ddd" stroke-width="0.7"/><line x1="721.0" y1="490" x2="721.0" y2="495" stroke="#555"/><text x="721.0" y="512" text-anchor="middle" font-size="11">0.82</text><line x1="80" y1="142.0" x2="85" y2="142.0" stroke="#555"/><text x="76" y="146.0" text-anchor="end" font-size="11">21.4</text><line x1="85" y1="142.0" x2="880" y2="142.0" stroke="#ddd" stroke-width="0.7"/><line x1="880.0" y1="490" x2="880.0" y2="495" stroke="#555"/><text x="880.0" y="512" text-anchor="middle" font-size="11">1.00</text><line x1="80" y1="55.0" x2="85" y2="55.0" stroke="#555"/><text x="76" y="59.0" text-anchor="end" font-size="11">27.2</text><line x1="85" y1="55.0" x2="880" y2="55.0" stroke="#ddd" stroke-width="0.7"/><polyline points="85.0,431.3 173.3,438.0 261.7,439.9 350.0,442.4 438.3,442.9 526.7,442.8 615.0,443.0 703.3,437.5 791.7,423.6 880.0,243.5" fill="none" stroke="#1f77b4" stroke-width="2"/><circle cx="85.0" cy="431.3" r="2.5" fill="#1f77b4"/><circle cx="173.3" cy="438.0" r="2.5" fill="#1f77b4"/><circle cx="261.7" cy="439.9" r="2.5" fill="#1f77b4"/><circle cx="350.0" cy="442.4" r="2.5" fill="#1f77b4"/><circle cx="438.3" cy="442.9" r="2.5" fill="#1f77b4"/><circle cx="526.7" cy="442.8" r="2.5" fill="#1f77b4"/><circle cx="615.0" cy="443.0" r="2.5" fill="#1f77b4"/><circle cx="703.3" cy="437.5" r="2.5" fill="#1f77b4"/><circle cx="791.7" cy="423.6" r="2.5" fill="#1f77b4"/><circle cx="880.0" cy="243.5" r="2.5" fill="#1f77b4"/><line x1="898" y1="75" x2="922" y2="75" stroke="#1f77b4" stroke-width="3"/><text x="928" y="79" font-size="10">p4_refdiag_balanced_heterogeneous</text><polyline points="85.0,419.4 173.3,425.3 261.7,432.1 350.0,436.0 438.3,439.2 526.7,438.0 615.0,438.4 703.3,439.3 791.7,437.9 880.0,370.2" fill="none" stroke="#d62728" stroke-width="2"/><circle cx="85.0" cy="419.4" r="2.5" fill="#d62728"/><circle cx="173.3" cy="425.3" r="2.5" fill="#d62728"/><circle cx="261.7" cy="432.1" r="2.5" fill="#d62728"/><circle cx="350.0" cy="436.0" r="2.5" fill="#d62728"/><circle cx="438.3" cy="439.2" r="2.5" fill="#d62728"/><circle cx="526.7" cy="438.0" r="2.5" fill="#d62728"/><circle cx="615.0" cy="438.4" r="2.5" fill="#d62728"/><circle cx="703.3" cy="439.3" r="2.5" fill="#d62728"/><circle cx="791.7" cy="437.9" r="2.5" fill="#d62728"/><circle cx="880.0" cy="370.2" r="2.5" fill="#d62728"/><line x1="898" y1="95" x2="922" y2="95" stroke="#d62728" stroke-width="3"/><text x="928" y="99" font-size="10">p4_freeze_balanced_heterogeneous</text><polyline points="85.0,428.6 173.3,436.9 261.7,440.2 350.0,442.6 438.3,443.0 526.7,442.2 615.0,441.7 703.3,438.0 791.7,387.7 880.0,85.0" fill="none" stroke="#2ca02c" stroke-width="2"/><circle cx="85.0" cy="428.6" r="2.5" fill="#2ca02c"/><circle cx="173.3" cy="436.9" r="2.5" fill="#2ca02c"/><circle cx="261.7" cy="440.2" r="2.5" fill="#2ca02c"/><circle cx="350.0" cy="442.6" r="2.5" fill="#2ca02c"/><circle cx="438.3" cy="443.0" r="2.5" fill="#2ca02c"/><circle cx="526.7" cy="442.2" r="2.5" fill="#2ca02c"/><circle cx="615.0" cy="441.7" r="2.5" fill="#2ca02c"/><circle cx="703.3" cy="438.0" r="2.5" fill="#2ca02c"/><circle cx="791.7" cy="387.7" r="2.5" fill="#2ca02c"/><circle cx="880.0" cy="85.0" r="2.5" fill="#2ca02c"/><line x1="898" y1="115" x2="922" y2="115" stroke="#2ca02c" stroke-width="3"/><text x="928" y="119" font-size="10">p4_strong_balanced_heterogeneous</text><polyline points="85.0,434.1 173.3,445.3 261.7,450.0 350.0,451.4 438.3,452.8 526.7,458.2 615.0,456.2 703.3,453.0 791.7,449.4 880.0,442.7" fill="none" stroke="#9467bd" stroke-width="2"/><circle cx="85.0" cy="434.1" r="2.5" fill="#9467bd"/><circle cx="173.3" cy="445.3" r="2.5" fill="#9467bd"/><circle cx="261.7" cy="450.0" r="2.5" fill="#9467bd"/><circle cx="350.0" cy="451.4" r="2.5" fill="#9467bd"/><circle cx="438.3" cy="452.8" r="2.5" fill="#9467bd"/><circle cx="526.7" cy="458.2" r="2.5" fill="#9467bd"/><circle cx="615.0" cy="456.2" r="2.5" fill="#9467bd"/><circle cx="703.3" cy="453.0" r="2.5" fill="#9467bd"/><circle cx="791.7" cy="449.4" r="2.5" fill="#9467bd"/><circle cx="880.0" cy="442.7" r="2.5" fill="#9467bd"/><line x1="898" y1="135" x2="922" y2="135" stroke="#9467bd" stroke-width="3"/><text x="928" y="139" font-size="10">p4_freeze_double_imbalance</text><polyline points="85.0,441.6 173.3,448.1 261.7,454.9 350.0,456.2 438.3,456.5 526.7,460.0 615.0,458.6 703.3,455.2 791.7,443.7 880.0,429.6" fill="none" stroke="#ff7f0e" stroke-width="2"/><circle cx="85.0" cy="441.6" r="2.5" fill="#ff7f0e"/><circle cx="173.3" cy="448.1" r="2.5" fill="#ff7f0e"/><circle cx="261.7" cy="454.9" r="2.5" fill="#ff7f0e"/><circle cx="350.0" cy="456.2" r="2.5" fill="#ff7f0e"/><circle cx="438.3" cy="456.5" r="2.5" fill="#ff7f0e"/><circle cx="526.7" cy="460.0" r="2.5" fill="#ff7f0e"/><circle cx="615.0" cy="458.6" r="2.5" fill="#ff7f0e"/><circle cx="703.3" cy="455.2" r="2.5" fill="#ff7f0e"/><circle cx="791.7" cy="443.7" r="2.5" fill="#ff7f0e"/><circle cx="880.0" cy="429.6" r="2.5" fill="#ff7f0e"/><line x1="898" y1="155" x2="922" y2="155" stroke="#ff7f0e" stroke-width="3"/><text x="928" y="159" font-size="10">p4_strong_double_imbalance</text><polyline points="85.0,428.3 173.3,430.0 261.7,431.2 350.0,433.8 438.3,437.2 526.7,439.1 615.0,441.3 703.3,442.3 791.7,446.2 880.0,450.9" fill="none" stroke="#17becf" stroke-width="2"/><circle cx="85.0" cy="428.3" r="2.5" fill="#17becf"/><circle cx="173.3" cy="430.0" r="2.5" fill="#17becf"/><circle cx="261.7" cy="431.2" r="2.5" fill="#17becf"/><circle cx="350.0" cy="433.8" r="2.5" fill="#17becf"/><circle cx="438.3" cy="437.2" r="2.5" fill="#17becf"/><circle cx="526.7" cy="439.1" r="2.5" fill="#17becf"/><circle cx="615.0" cy="441.3" r="2.5" fill="#17becf"/><circle cx="703.3" cy="442.3" r="2.5" fill="#17becf"/><circle cx="791.7" cy="446.2" r="2.5" fill="#17becf"/><circle cx="880.0" cy="450.9" r="2.5" fill="#17becf"/><line x1="898" y1="175" x2="922" y2="175" stroke="#17becf" stroke-width="3"/><text x="928" y="179" font-size="10">p5_freeze_uniform_055</text><polyline points="85.0,428.6 173.3,431.3 261.7,434.3 350.0,438.2 438.3,443.0 526.7,445.5 615.0,448.0 703.3,450.0 791.7,451.0 880.0,452.5" fill="none" stroke="#8c564b" stroke-width="2"/><circle cx="85.0" cy="428.6" r="2.5" fill="#8c564b"/><circle cx="173.3" cy="431.3" r="2.5" fill="#8c564b"/><circle cx="261.7" cy="434.3" r="2.5" fill="#8c564b"/><circle cx="350.0" cy="438.2" r="2.5" fill="#8c564b"/><circle cx="438.3" cy="443.0" r="2.5" fill="#8c564b"/><circle cx="526.7" cy="445.5" r="2.5" fill="#8c564b"/><circle cx="615.0" cy="448.0" r="2.5" fill="#8c564b"/><circle cx="703.3" cy="450.0" r="2.5" fill="#8c564b"/><circle cx="791.7" cy="451.0" r="2.5" fill="#8c564b"/><circle cx="880.0" cy="452.5" r="2.5" fill="#8c564b"/><line x1="898" y1="195" x2="922" y2="195" stroke="#8c564b" stroke-width="3"/><text x="928" y="199" font-size="10">p5_strong_uniform_055</text><polyline points="85.0,419.4 173.3,425.3 261.7,432.1 350.0,436.0 438.3,439.2 526.7,438.0 615.0,438.4 703.3,439.3 791.7,437.9 880.0,370.2" fill="none" stroke="#e377c2" stroke-width="2"/><circle cx="85.0" cy="419.4" r="2.5" fill="#e377c2"/><circle cx="173.3" cy="425.3" r="2.5" fill="#e377c2"/><circle cx="261.7" cy="432.1" r="2.5" fill="#e377c2"/><circle cx="350.0" cy="436.0" r="2.5" fill="#e377c2"/><circle cx="438.3" cy="439.2" r="2.5" fill="#e377c2"/><circle cx="526.7" cy="438.0" r="2.5" fill="#e377c2"/><circle cx="615.0" cy="438.4" r="2.5" fill="#e377c2"/><circle cx="703.3" cy="439.3" r="2.5" fill="#e377c2"/><circle cx="791.7" cy="437.9" r="2.5" fill="#e377c2"/><circle cx="880.0" cy="370.2" r="2.5" fill="#e377c2"/><line x1="898" y1="215" x2="922" y2="215" stroke="#e377c2" stroke-width="3"/><text x="928" y="219" font-size="10">p6_freeze_gamma_000</text><polyline points="85.0,411.1 173.3,433.4 261.7,440.3 350.0,444.0 438.3,445.3 526.7,445.8 615.0,446.5 703.3,447.0 791.7,447.3 880.0,446.8" fill="none" stroke="#7f7f7f" stroke-width="2"/><circle cx="85.0" cy="411.1" r="2.5" fill="#7f7f7f"/><circle cx="173.3" cy="433.4" r="2.5" fill="#7f7f7f"/><circle cx="261.7" cy="440.3" r="2.5" fill="#7f7f7f"/><circle cx="350.0" cy="444.0" r="2.5" fill="#7f7f7f"/><circle cx="438.3" cy="445.3" r="2.5" fill="#7f7f7f"/><circle cx="526.7" cy="445.8" r="2.5" fill="#7f7f7f"/><circle cx="615.0" cy="446.5" r="2.5" fill="#7f7f7f"/><circle cx="703.3" cy="447.0" r="2.5" fill="#7f7f7f"/><circle cx="791.7" cy="447.3" r="2.5" fill="#7f7f7f"/><circle cx="880.0" cy="446.8" r="2.5" fill="#7f7f7f"/><line x1="898" y1="235" x2="922" y2="235" stroke="#7f7f7f" stroke-width="3"/><text x="928" y="239" font-size="10">p6_freeze_gamma_050</text><polyline points="85.0,416.8 173.3,436.8 261.7,441.6 350.0,443.7 438.3,444.4 526.7,444.7 615.0,444.9 703.3,445.1 791.7,445.3 880.0,445.3" fill="none" stroke="#bcbd22" stroke-width="2"/><circle cx="85.0" cy="416.8" r="2.5" fill="#bcbd22"/><circle cx="173.3" cy="436.8" r="2.5" fill="#bcbd22"/><circle cx="261.7" cy="441.6" r="2.5" fill="#bcbd22"/><circle cx="350.0" cy="443.7" r="2.5" fill="#bcbd22"/><circle cx="438.3" cy="444.4" r="2.5" fill="#bcbd22"/><circle cx="526.7" cy="444.7" r="2.5" fill="#bcbd22"/><circle cx="615.0" cy="444.9" r="2.5" fill="#bcbd22"/><circle cx="703.3" cy="445.1" r="2.5" fill="#bcbd22"/><circle cx="791.7" cy="445.3" r="2.5" fill="#bcbd22"/><circle cx="880.0" cy="445.3" r="2.5" fill="#bcbd22"/><line x1="898" y1="255" x2="922" y2="255" stroke="#bcbd22" stroke-width="3"/><text x="928" y="259" font-size="10">p6_freeze_gamma_100</text><text x="482.5" y="540" text-anchor="middle" font-size="14">Retained rank ratio</text><text x="20" y="272.5" transform="rotate(-90 20 272.5)" text-anchor="middle" font-size="14">Average loss</text><text x="482.5" y="26" text-anchor="middle" font-size="17" font-weight="bold">P4 Average loss vs retained rank</text></svg>