<svg xmlns="http://www.w3.org/2000/svg" width="1100" height="560" viewBox="0 0 1100 560"><rect width="100%" height="100%" fill="white"/><line x1="85" y1="490" x2="880" y2="490" stroke="#222"/><line x1="85" y1="490" x2="85" y2="55" stroke="#222"/><line x1="85.0" y1="490" x2="85.0" y2="495" stroke="#555"/><text x="85.0" y="512" text-anchor="middle" font-size="11">0.10</text><line x1="80" y1="490.0" x2="85" y2="490.0" stroke="#555"/><text x="76" y="494.0" text-anchor="end" font-size="11">-0.0083</text><line x1="85" y1="490.0" x2="880" y2="490.0" stroke="#ddd" stroke-width="0.7"/><line x1="244.0" y1="490" x2="244.0" y2="495" stroke="#555"/><text x="244.0" y="512" text-anchor="middle" font-size="11">0.28</text><line x1="80" y1="403.0" x2="85" y2="403.0" stroke="#555"/><text x="76" y="407.0" text-anchor="end" font-size="11">0.203</text><line x1="85" y1="403.0" x2="880" y2="403.0" stroke="#ddd" stroke-width="0.7"/><line x1="403.0" y1="490" x2="403.0" y2="495" stroke="#555"/><text x="403.0" y="512" text-anchor="middle" font-size="11">0.46</text><line x1="80" y1="316.0" x2="85" y2="316.0" stroke="#555"/><text x="76" y="320.0" text-anchor="end" font-size="11">0.415</text><line x1="85" y1="316.0" x2="880" y2="316.0" stroke="#ddd" stroke-width="0.7"/><line x1="562.0" y1="490" x2="562.0" y2="495" stroke="#555"/><text x="562.0" y="512" text-anchor="middle" font-size="11">0.64</text><line x1="80" y1="229.0" x2="85" y2="229.0" stroke="#555"/><text x="76" y="233.0" text-anchor="end" font-size="11">0.627</text><line x1="85" y1="229.0" x2="880" y2="229.0" stroke="#ddd" stroke-width="0.7"/><line x1="721.0" y1="490" x2="721.0" y2="495" stroke="#555"/><text x="721.0" y="512" text-anchor="middle" font-size="11">0.82</text><line x1="80" y1="142.0" x2="85" y2="142.0" stroke="#555"/><text x="76" y="146.0" text-anchor="end" font-size="11">0.839</text><line x1="85" y1="142.0" x2="880" y2="142.0" stroke="#ddd" stroke-width="0.7"/><line x1="880.0" y1="490" x2="880.0" y2="495" stroke="#555"/><text x="880.0" y="512" text-anchor="middle" font-size="11">1.00</text><line x1="80" y1="55.0" x2="85" y2="55.0" stroke="#555"/><text x="76" y="59.0" text-anchor="end" font-size="11">1.05</text><line x1="85" y1="55.0" x2="880" y2="55.0" stroke="#ddd" stroke-width="0.7"/><polyline points="85.0,455.7 173.3,381.1 261.7,313.2 350.0,289.6 438.3,267.8 526.7,275.9 615.0,257.5 703.3,285.4 791.7,332.0 880.0,455.6" fill="none" stroke="#1f77b4" stroke-width="2"/><circle cx="85.0" cy="455.7" r="2.5" fill="#1f77b4"/><circle cx="173.3" cy="381.1" r="2.5" fill="#1f77b4"/><circle cx="261.7" cy="313.2" r="2.5" fill="#1f77b4"/><circle cx="350.0" cy="289.6" r="2.5" fill="#1f77b4"/><circle cx="438.3" cy="267.8" r="2.5" fill="#1f77b4"/><circle cx="526.7" cy="275.9" r="2.5" fill="#1f77b4"/><circle cx="615.0" cy="257.5" r="2.5" fill="#1f77b4"/><circle cx="703.3" cy="285.4" r="2.5" fill="#1f77b4"/><circle cx="791.7" cy="332.0" r="2.5" fill="#1f77b4"/><circle cx="880.0" cy="455.6" r="2.5" fill="#1f77b4"/><line x1="898" y1="75" x2="922" y2="75" stroke="#1f77b4" stroke-width="3"/><text x="928" y="79" font-size="10">p4_refdiag_balanced_heterogeneous</text><polyline points="85.0,457.9 173.3,431.4 261.7,369.9 350.0,377.8 438.3,308.0 526.7,310.2 615.0,282.7 703.3,306.8 791.7,344.0 880.0,453.6" fill="none" stroke="#d62728" stroke-width="2"/><circle cx="85.0" cy="457.9" r="2.5" fill="#d62728"/><circle cx="173.3" cy="431.4" r="2.5" fill="#d62728"/><circle cx="261.7" cy="369.9" r="2.5" fill="#d62728"/><circle cx="350.0" cy="377.8" r="2.5" fill="#d62728"/><circle cx="438.3" cy="308.0" r="2.5" fill="#d62728"/><circle cx="526.7" cy="310.2" r="2.5" fill="#d62728"/><circle cx="615.0" cy="282.7" r="2.5" fill="#d62728"/><circle cx="703.3" cy="306.8" r="2.5" fill="#d62728"/><circle cx="791.7" cy="344.0" r="2.5" fill="#d62728"/><circle cx="880.0" cy="453.6" r="2.5" fill="#d62728"/><line x1="898" y1="95" x2="922" y2="95" stroke="#d62728" stroke-width="3"/><text x="928" y="99" font-size="10">p4_freeze_balanced_heterogeneous</text><polyline points="85.0,458.6 173.3,390.9 261.7,302.8 350.0,296.0 438.3,262.6 526.7,280.6 615.0,276.7 703.3,292.2 791.7,415.7 880.0,453.4" fill="none" stroke="#2ca02c" stroke-width="2"/><circle cx="85.0" cy="458.6" r="2.5" fill="#2ca02c"/><circle cx="173.3" cy="390.9" r="2.5" fill="#2ca02c"/><circle cx="261.7" cy="302.8" r="2.5" fill="#2ca02c"/><circle cx="350.0" cy="296.0" r="2.5" fill="#2ca02c"/><circle cx="438.3" cy="262.6" r="2.5" fill="#2ca02c"/><circle cx="526.7" cy="280.6" r="2.5" fill="#2ca02c"/><circle cx="615.0" cy="276.7" r="2.5" fill="#2ca02c"/><circle cx="703.3" cy="292.2" r="2.5" fill="#2ca02c"/><circle cx="791.7" cy="415.7" r="2.5" fill="#2ca02c"/><circle cx="880.0" cy="453.4" r="2.5" fill="#2ca02c"/><line x1="898" y1="115" x2="922" y2="115" stroke="#2ca02c" stroke-width="3"/><text x="928" y="119" font-size="10">p4_strong_balanced_heterogeneous</text><polyline points="85.0,370.3 173.3,227.1 261.7,158.2 350.0,165.1 438.3,151.7 526.7,99.4 615.0,116.3 703.3,139.5 791.7,158.4 880.0,181.9" fill="none" stroke="#9467bd" stroke-width="2"/><circle cx="85.0" cy="370.3" r="2.5" fill="#9467bd"/><circle cx="173.3" cy="227.1" r="2.5" fill="#9467bd"/><circle cx="261.7" cy="158.2" r="2.5" fill="#9467bd"/><circle cx="350.0" cy="165.1" r="2.5" fill="#9467bd"/><circle cx="438.3" cy="151.7" r="2.5" fill="#9467bd"/><circle cx="526.7" cy="99.4" r="2.5" fill="#9467bd"/><circle cx="615.0" cy="116.3" r="2.5" fill="#9467bd"/><circle cx="703.3" cy="139.5" r="2.5" fill="#9467bd"/><circle cx="791.7" cy="158.4" r="2.5" fill="#9467bd"/><circle cx="880.0" cy="181.9" r="2.5" fill="#9467bd"/><line x1="898" y1="135" x2="922" y2="135" stroke="#9467bd" stroke-width="3"/><text x="928" y="139" font-size="10">p4_freeze_double_imbalance</text><polyline points="85.0,284.9 173.3,209.5 261.7,138.8 350.0,128.8 438.3,124.3 526.7,85.0 615.0,96.4 703.3,122.6 791.7,192.6 880.0,211.3" fill="none" stroke="#ff7f0e" stroke-width="2"/><circle cx="85.0" cy="284.9" r="2.5" fill="#ff7f0e"/><circle cx="173.3" cy="209.5" r="2.5" fill="#ff7f0e"/><circle cx="261.7" cy="138.8" r="2.5" fill="#ff7f0e"/><circle cx="350.0" cy="128.8" r="2.5" fill="#ff7f0e"/><circle cx="438.3" cy="124.3" r="2.5" fill="#ff7f0e"/><circle cx="526.7" cy="85.0" r="2.5" fill="#ff7f0e"/><circle cx="615.0" cy="96.4" r="2.5" fill="#ff7f0e"/><circle cx="703.3" cy="122.6" r="2.5" fill="#ff7f0e"/><circle cx="791.7" cy="192.6" r="2.5" fill="#ff7f0e"/><circle cx="880.0" cy="211.3" r="2.5" fill="#ff7f0e"/><line x1="898" y1="155" x2="922" y2="155" stroke="#ff7f0e" stroke-width="3"/><text x="928" y="159" font-size="10">p4_strong_double_imbalance</text><polyline points="85.0,432.9 173.3,379.1 261.7,399.5 350.0,306.3 438.3,304.3 526.7,299.1 615.0,293.2 703.3,294.1 791.7,244.8 880.0,148.9" fill="none" stroke="#17becf" stroke-width="2"/><circle cx="85.0" cy="432.9" r="2.5" fill="#17becf"/><circle cx="173.3" cy="379.1" r="2.5" fill="#17becf"/><circle cx="261.7" cy="399.5" r="2.5" fill="#17becf"/><circle cx="350.0" cy="306.3" r="2.5" fill="#17becf"/><circle cx="438.3" cy="304.3" r="2.5" fill="#17becf"/><circle cx="526.7" cy="299.1" r="2.5" fill="#17becf"/><circle cx="615.0" cy="293.2" r="2.5" fill="#17becf"/><circle cx="703.3" cy="294.1" r="2.5" fill="#17becf"/><circle cx="791.7" cy="244.8" r="2.5" fill="#17becf"/><circle cx="880.0" cy="148.9" r="2.5" fill="#17becf"/><line x1="898" y1="175" x2="922" y2="175" stroke="#17becf" stroke-width="3"/><text x="928" y="179" font-size="10">p5_freeze_uniform_055</text><polyline points="85.0,420.9 173.3,319.7 261.7,279.4 350.0,209.0 438.3,168.4 526.7,166.8 615.0,151.9 703.3,145.0 791.7,145.1 880.0,139.3" fill="none" stroke="#8c564b" stroke-width="2"/><circle cx="85.0" cy="420.9" r="2.5" fill="#8c564b"/><circle cx="173.3" cy="319.7" r="2.5" fill="#8c564b"/><circle cx="261.7" cy="279.4" r="2.5" fill="#8c564b"/><circle cx="350.0" cy="209.0" r="2.5" fill="#8c564b"/><circle cx="438.3" cy="168.4" r="2.5" fill="#8c564b"/><circle cx="526.7" cy="166.8" r="2.5" fill="#8c564b"/><circle cx="615.0" cy="151.9" r="2.5" fill="#8c564b"/><circle cx="703.3" cy="145.0" r="2.5" fill="#8c564b"/><circle cx="791.7" cy="145.1" r="2.5" fill="#8c564b"/><circle cx="880.0" cy="139.3" r="2.5" fill="#8c564b"/><line x1="898" y1="195" x2="922" y2="195" stroke="#8c564b" stroke-width="3"/><text x="928" y="199" font-size="10">p5_strong_uniform_055</text><polyline points="85.0,457.9 173.3,431.4 261.7,369.9 350.0,377.8 438.3,308.0 526.7,310.2 615.0,282.7 703.3,306.8 791.7,344.0 880.0,453.6" fill="none" stroke="#e377c2" stroke-width="2"/><circle cx="85.0" cy="457.9" r="2.5" fill="#e377c2"/><circle cx="173.3" cy="431.4" r="2.5" fill="#e377c2"/><circle cx="261.7" cy="369.9" r="2.5" fill="#e377c2"/><circle cx="350.0" cy="377.8" r="2.5" fill="#e377c2"/><circle cx="438.3" cy="308.0" r="2.5" fill="#e377c2"/><circle cx="526.7" cy="310.2" r="2.5" fill="#e377c2"/><circle cx="615.0" cy="282.7" r="2.5" fill="#e377c2"/><circle cx="703.3" cy="306.8" r="2.5" fill="#e377c2"/><circle cx="791.7" cy="344.0" r="2.5" fill="#e377c2"/><circle cx="880.0" cy="453.6" r="2.5" fill="#e377c2"/><line x1="898" y1="215" x2="922" y2="215" stroke="#e377c2" stroke-width="3"/><text x="928" y="219" font-size="10">p6_freeze_gamma_000</text><polyline points="85.0,459.9 173.3,411.3 261.7,313.8 350.0,248.6 438.3,214.5 526.7,208.5 615.0,193.2 703.3,186.0 791.7,180.9 880.0,194.4" fill="none" stroke="#7f7f7f" stroke-width="2"/><circle cx="85.0" cy="459.9" r="2.5" fill="#7f7f7f"/><circle cx="173.3" cy="411.3" r="2.5" fill="#7f7f7f"/><circle cx="261.7" cy="313.8" r="2.5" fill="#7f7f7f"/><circle cx="350.0" cy="248.6" r="2.5" fill="#7f7f7f"/><circle cx="438.3" cy="214.5" r="2.5" fill="#7f7f7f"/><circle cx="526.7" cy="208.5" r="2.5" fill="#7f7f7f"/><circle cx="615.0" cy="193.2" r="2.5" fill="#7f7f7f"/><circle cx="703.3" cy="186.0" r="2.5" fill="#7f7f7f"/><circle cx="791.7" cy="180.9" r="2.5" fill="#7f7f7f"/><circle cx="880.0" cy="194.4" r="2.5" fill="#7f7f7f"/><line x1="898" y1="235" x2="922" y2="235" stroke="#7f7f7f" stroke-width="3"/><text x="928" y="239" font-size="10">p6_freeze_gamma_050</text><polyline points="85.0,460.0 173.3,404.2 261.7,293.1 350.0,228.4 438.3,212.1 526.7,208.3 615.0,204.1 703.3,196.7 791.7,193.1 880.0,193.8" fill="none" stroke="#bcbd22" stroke-width="2"/><circle cx="85.0" cy="460.0" r="2.5" fill="#bcbd22"/><circle cx="173.3" cy="404.2" r="2.5" fill="#bcbd22"/><circle cx="261.7" cy="293.1" r="2.5" fill="#bcbd22"/><circle cx="350.0" cy="228.4" r="2.5" fill="#bcbd22"/><circle cx="438.3" cy="212.1" r="2.5" fill="#bcbd22"/><circle cx="526.7" cy="208.3" r="2.5" fill="#bcbd22"/><circle cx="615.0" cy="204.1" r="2.5" fill="#bcbd22"/><circle cx="703.3" cy="196.7" r="2.5" fill="#bcbd22"/><circle cx="791.7" cy="193.1" r="2.5" fill="#bcbd22"/><circle cx="880.0" cy="193.8" r="2.5" fill="#bcbd22"/><line x1="898" y1="255" x2="922" y2="255" stroke="#bcbd22" stroke-width="3"/><text x="928" y="259" font-size="10">p6_freeze_gamma_100</text><text x="482.5" y="540" text-anchor="middle" font-size="14">Retained rank ratio</text><text x="20" y="272.5" transform="rotate(-90 20 272.5)" text-anchor="middle" font-size="14">Macro-F1</text><text x="482.5" y="26" text-anchor="middle" font-size="17" font-weight="bold">P4 Macro-F1 vs retained rank</text></svg>