<svg xmlns="http://www.w3.org/2000/svg" width="530" height="545"><rect width="100%" height="100%" fill="white"/><text x="265.0" y="25" text-anchor="middle" font-size="16" font-weight="bold">p4_strong_balanced_heterogeneous: full rank</text><rect x="70" y="55" width="42" height="42" fill="rgb(245,245,255)" stroke="white"/><text x="91.0" y="80.0" text-anchor="middle" font-size="10">0</text><rect x="112" y="55" width="42" height="42" fill="rgb(245,245,255)" stroke="white"/><text x="133.0" y="80.0" text-anchor="middle" font-size="10">0</text><rect x="154" y="55" width="42" height="42" fill="rgb(245,245,255)" stroke="white"/><text x="175.0" y="80.0" text-anchor="middle" font-size="10">0</text><rect x="196" y="55" width="42" height="42" fill="rgb(245,245,255)" stroke="white"/><text x="217.0" y="80.0" text-anchor="middle" font-size="10">0</text><rect x="238" y="55" width="42" height="42" fill="rgb(245,245,255)" stroke="white"/><text x="259.0" y="80.0" text-anchor="middle" font-size="10">0</text><rect x="280" y="55" width="42" height="42" fill="rgb(134,134,255)" stroke="white"/><text x="301.0" y="80.0" text-anchor="middle" font-size="10">585</text><rect x="322" y="55" width="42" height="42" fill="rgb(170,170,255)" stroke="white"/><text x="343.0" y="80.0" text-anchor="middle" font-size="10">395</text><rect x="364" y="55" width="42" height="42" fill="rgb(245,245,255)" stroke="white"/><text x="385.0" y="80.0" text-anchor="middle" font-size="10">0</text><rect x="406" y="55" width="42" height="42" fill="rgb(245,245,255)" stroke="white"/><text x="427.0" y="80.0" text-anchor="middle" font-size="10">0</text><rect x="448" y="55" width="42" height="42" fill="rgb(245,245,255)" stroke="white"/><text x="469.0" y="80.0" text-anchor="middle" font-size="10">0</text><rect x="70" y="97" width="42" height="42" fill="rgb(245,245,255)" stroke="white"/><text x="91.0" y="122.0" text-anchor="middle" font-size="10">0</text><rect x="112" y="97" width="42" height="42" fill="rgb(245,245,255)" stroke="white"/><text x="133.0" y="122.0" text-anchor="middle" font-size="10">0</text><rect x="154" y="97" width="42" height="42" fill="rgb(245,245,255)" stroke="white"/><text x="175.0" y="122.0" text-anchor="middle" font-size="10">0</text><rect x="196" y="97" width="42" height="42" fill="rgb(245,245,255)" stroke="white"/><text x="217.0" y="122.0" text-anchor="middle" font-size="10">0</text><rect x="238" y="97" width="42" height="42" fill="rgb(245,245,255)" stroke="white"/><text x="259.0" y="122.0" text-anchor="middle" font-size="10">0</text><rect x="280" y="97" width="42" height="42" fill="rgb(69,69,255)" stroke="white"/><text x="301.0" y="122.0" text-anchor="middle" font-size="10">928</text><rect x="322" y="97" width="42" height="42" fill="rgb(205,205,255)" stroke="white"/><text x="343.0" y="122.0" text-anchor="middle" font-size="10">207</text><rect x="364" y="97" width="42" height="42" fill="rgb(245,245,255)" stroke="white"/><text x="385.0" y="122.0" text-anchor="middle" font-size="10">0</text><rect x="406" y="97" width="42" height="42" fill="rgb(245,245,255)" stroke="white"/><text x="427.0" y="122.0" text-anchor="middle" font-size="10">0</text><rect x="448" y="97" width="42" height="42" fill="rgb(245,245,255)" stroke="white"/><text x="469.0" y="122.0" text-anchor="middle" font-size="10">0</text><rect x="70" y="139" width="42" height="42" fill="rgb(245,245,255)" stroke="white"/><text x="91.0" y="164.0" text-anchor="middle" font-size="10">0</text><rect x="112" y="139" width="42" height="42" fill="rgb(245,245,255)" stroke="white"/><text x="133.0" y="164.0" text-anchor="middle" font-size="10">0</text><rect x="154" y="139" width="42" height="42" fill="rgb(245,245,255)" stroke="white"/><text x="175.0" y="164.0" text-anchor="middle" font-size="10">0</text><rect x="196" y="139" width="42" height="42" fill="rgb(245,245,255)" stroke="white"/><text x="217.0" y="164.0" text-anchor="middle" font-size="10">0</text><rect x="238" y="139" width="42" height="42" fill="rgb(245,245,255)" stroke="white"/><text x="259.0" y="164.0" text-anchor="middle" font-size="10">0</text><rect x="280" y="139" width="42" height="42" fill="rgb(126,126,255)" stroke="white"/><text x="301.0" y="164.0" text-anchor="middle" font-size="10">627</text><rect x="322" y="139" width="42" height="42" fill="rgb(168,168,255)" stroke="white"/><text x="343.0" y="164.0" text-anchor="middle" font-size="10">405</text><rect x="364" y="139" width="42" height="42" fill="rgb(245,245,255)" stroke="white"/><text x="385.0" y="164.0" text-anchor="middle" font-size="10">0</text><rect x="406" y="139" width="42" height="42" fill="rgb(245,245,255)" stroke="white"/><text x="427.0" y="164.0" text-anchor="middle" font-size="10">0</text><rect x="448" y="139" width="42" height="42" fill="rgb(245,245,255)" stroke="white"/><text x="469.0" y="164.0" text-anchor="middle" font-size="10">0</text><rect x="70" y="181" width="42" height="42" fill="rgb(245,245,255)" stroke="white"/><text x="91.0" y="206.0" text-anchor="middle" font-size="10">0</text><rect x="112" y="181" width="42" height="42" fill="rgb(245,245,255)" stroke="white"/><text x="133.0" y="206.0" text-anchor="middle" font-size="10">0</text><rect x="154" y="181" width="42" height="42" fill="rgb(245,245,255)" stroke="white"/><text x="175.0" y="206.0" text-anchor="middle" font-size="10">0</text><rect x="196" y="181" width="42" height="42" fill="rgb(245,245,255)" stroke="white"/><text x="217.0" y="206.0" text-anchor="middle" font-size="10">0</text><rect x="238" y="181" width="42" height="42" fill="rgb(245,245,255)" stroke="white"/><text x="259.0" y="206.0" text-anchor="middle" font-size="10">0</text><rect x="280" y="181" width="42" height="42" fill="rgb(55,55,255)" stroke="white"/><text x="301.0" y="206.0" text-anchor="middle" font-size="10">1007</text><rect x="322" y="181" width="42" height="42" fill="rgb(244,244,255)" stroke="white"/><text x="343.0" y="206.0" text-anchor="middle" font-size="10">3</text><rect x="364" y="181" width="42" height="42" fill="rgb(245,245,255)" stroke="white"/><text x="385.0" y="206.0" text-anchor="middle" font-size="10">0</text><rect x="406" y="181" width="42" height="42" fill="rgb(245,245,255)" stroke="white"/><text x="427.0" y="206.0" text-anchor="middle" font-size="10">0</text><rect x="448" y="181" width="42" height="42" fill="rgb(245,245,255)" stroke="white"/><text x="469.0" y="206.0" text-anchor="middle" font-size="10">0</text><rect x="70" y="223" width="42" height="42" fill="rgb(245,245,255)" stroke="white"/><text x="91.0" y="248.0" text-anchor="middle" font-size="10">0</text><rect x="112" y="223" width="42" height="42" fill="rgb(245,245,255)" stroke="white"/><text x="133.0" y="248.0" text-anchor="middle" font-size="10">0</text><rect x="154" y="223" width="42" height="42" fill="rgb(245,245,255)" stroke="white"/><text x="175.0" y="248.0" text-anchor="middle" font-size="10">0</text><rect x="196" y="223" width="42" height="42" fill="rgb(245,245,255)" stroke="white"/><text x="217.0" y="248.0" text-anchor="middle" font-size="10">0</text><rect x="238" y="223" width="42" height="42" fill="rgb(245,245,255)" stroke="white"/><text x="259.0" y="248.0" text-anchor="middle" font-size="10">0</text><rect x="280" y="223" width="42" height="42" fill="rgb(82,82,255)" stroke="white"/><text x="301.0" y="248.0" text-anchor="middle" font-size="10">859</text><rect x="322" y="223" width="42" height="42" fill="rgb(221,221,255)" stroke="white"/><text x="343.0" y="248.0" text-anchor="middle" font-size="10">123</text><rect x="364" y="223" width="42" height="42" fill="rgb(245,245,255)" stroke="white"/><text x="385.0" y="248.0" text-anchor="middle" font-size="10">0</text><rect x="406" y="223" width="42" height="42" fill="rgb(245,245,255)" stroke="white"/><text x="427.0" y="248.0" text-anchor="middle" font-size="10">0</text><rect x="448" y="223" width="42" height="42" fill="rgb(245,245,255)" stroke="white"/><text x="469.0" y="248.0" text-anchor="middle" font-size="10">0</text><rect x="70" y="265" width="42" height="42" fill="rgb(245,245,255)" stroke="white"/><text x="91.0" y="290.0" text-anchor="middle" font-size="10">0</text><rect x="112" y="265" width="42" height="42" fill="rgb(245,245,255)" stroke="white"/><text x="133.0" y="290.0" text-anchor="middle" font-size="10">0</text><rect x="154" y="265" width="42" height="42" fill="rgb(245,245,255)" stroke="white"/><text x="175.0" y="290.0" text-anchor="middle" font-size="10">0</text><rect x="196" y="265" width="42" height="42" fill="rgb(245,245,255)" stroke="white"/><text x="217.0" y="290.0" text-anchor="middle" font-size="10">0</text><rect x="238" y="265" width="42" height="42" fill="rgb(245,245,255)" stroke="white"/><text x="259.0" y="290.0" text-anchor="middle" font-size="10">0</text><rect x="280" y="265" width="42" height="42" fill="rgb(78,78,255)" stroke="white"/><text x="301.0" y="290.0" text-anchor="middle" font-size="10">883</text><rect x="322" y="265" width="42" height="42" fill="rgb(243,243,255)" stroke="white"/><text x="343.0" y="290.0" text-anchor="middle" font-size="10">9</text><rect x="364" y="265" width="42" height="42" fill="rgb(245,245,255)" stroke="white"/><text x="385.0" y="290.0" text-anchor="middle" font-size="10">0</text><rect x="406" y="265" width="42" height="42" fill="rgb(245,245,255)" stroke="white"/><text x="427.0" y="290.0" text-anchor="middle" font-size="10">0</text><rect x="448" y="265" width="42" height="42" fill="rgb(245,245,255)" stroke="white"/><text x="469.0" y="290.0" text-anchor="middle" font-size="10">0</text><rect x="70" y="307" width="42" height="42" fill="rgb(245,245,255)" stroke="white"/><text x="91.0" y="332.0" text-anchor="middle" font-size="10">0</text><rect x="112" y="307" width="42" height="42" fill="rgb(245,245,255)" stroke="white"/><text x="133.0" y="332.0" text-anchor="middle" font-size="10">0</text><rect x="154" y="307" width="42" height="42" fill="rgb(245,245,255)" stroke="white"/><text x="175.0" y="332.0" text-anchor="middle" font-size="10">0</text><rect x="196" y="307" width="42" height="42" fill="rgb(245,245,255)" stroke="white"/><text x="217.0" y="332.0" text-anchor="middle" font-size="10">0</text><rect x="238" y="307" width="42" height="42" fill="rgb(245,245,255)" stroke="white"/><text x="259.0" y="332.0" text-anchor="middle" font-size="10">0</text><rect x="280" y="307" width="42" height="42" fill="rgb(243,243,255)" stroke="white"/><text x="301.0" y="332.0" text-anchor="middle" font-size="10">10</text><rect x="322" y="307" width="42" height="42" fill="rgb(66,66,255)" stroke="white"/><text x="343.0" y="332.0" text-anchor="middle" font-size="10">948</text><rect x="364" y="307" width="42" height="42" fill="rgb(245,245,255)" stroke="white"/><text x="385.0" y="332.0" text-anchor="middle" font-size="10">0</text><rect x="406" y="307" width="42" height="42" fill="rgb(245,245,255)" stroke="white"/><text x="427.0" y="332.0" text-anchor="middle" font-size="10">0</text><rect x="448" y="307" width="42" height="42" fill="rgb(245,245,255)" stroke="white"/><text x="469.0" y="332.0" text-anchor="middle" font-size="10">0</text><rect x="70" y="349" width="42" height="42" fill="rgb(245,245,255)" stroke="white"/><text x="91.0" y="374.0" text-anchor="middle" font-size="10">0</text><rect x="112" y="349" width="42" height="42" fill="rgb(245,245,255)" stroke="white"/><text x="133.0" y="374.0" text-anchor="middle" font-size="10">0</text><rect x="154" y="349" width="42" height="42" fill="rgb(245,245,255)" stroke="white"/><text x="175.0" y="374.0" text-anchor="middle" font-size="10">0</text><rect x="196" y="349" width="42" height="42" fill="rgb(245,245,255)" stroke="white"/><text x="217.0" y="374.0" text-anchor="middle" font-size="10">0</text><rect x="238" y="349" width="42" height="42" fill="rgb(245,245,255)" stroke="white"/><text x="259.0" y="374.0" text-anchor="middle" font-size="10">0</text><rect x="280" y="349" width="42" height="42" fill="rgb(57,57,255)" stroke="white"/><text x="301.0" y="374.0" text-anchor="middle" font-size="10">996</text><rect x="322" y="349" width="42" height="42" fill="rgb(238,238,255)" stroke="white"/><text x="343.0" y="374.0" text-anchor="middle" font-size="10">32</text><rect x="364" y="349" width="42" height="42" fill="rgb(245,245,255)" stroke="white"/><text x="385.0" y="374.0" text-anchor="middle" font-size="10">0</text><rect x="406" y="349" width="42" height="42" fill="rgb(245,245,255)" stroke="white"/><text x="427.0" y="374.0" text-anchor="middle" font-size="10">0</text><rect x="448" y="349" width="42" height="42" fill="rgb(245,245,255)" stroke="white"/><text x="469.0" y="374.0" text-anchor="middle" font-size="10">0</text><rect x="70" y="391" width="42" height="42" fill="rgb(245,245,255)" stroke="white"/><text x="91.0" y="416.0" text-anchor="middle" font-size="10">0</text><rect x="112" y="391" width="42" height="42" fill="rgb(245,245,255)" stroke="white"/><text x="133.0" y="416.0" text-anchor="middle" font-size="10">0</text><rect x="154" y="391" width="42" height="42" fill="rgb(245,245,255)" stroke="white"/><text x="175.0" y="416.0" text-anchor="middle" font-size="10">0</text><rect x="196" y="391" width="42" height="42" fill="rgb(245,245,255)" stroke="white"/><text x="217.0" y="416.0" text-anchor="middle" font-size="10">0</text><rect x="238" y="391" width="42" height="42" fill="rgb(245,245,255)" stroke="white"/><text x="259.0" y="416.0" text-anchor="middle" font-size="10">0</text><rect x="280" y="391" width="42" height="42" fill="rgb(66,66,255)" stroke="white"/><text x="301.0" y="416.0" text-anchor="middle" font-size="10">948</text><rect x="322" y="391" width="42" height="42" fill="rgb(240,240,255)" stroke="white"/><text x="343.0" y="416.0" text-anchor="middle" font-size="10">26</text><rect x="364" y="391" width="42" height="42" fill="rgb(245,245,255)" stroke="white"/><text x="385.0" y="416.0" text-anchor="middle" font-size="10">0</text><rect x="406" y="391" width="42" height="42" fill="rgb(245,245,255)" stroke="white"/><text x="427.0" y="416.0" text-anchor="middle" font-size="10">0</text><rect x="448" y="391" width="42" height="42" fill="rgb(245,245,255)" stroke="white"/><text x="469.0" y="416.0" text-anchor="middle" font-size="10">0</text><rect x="70" y="433" width="42" height="42" fill="rgb(245,245,255)" stroke="white"/><text x="91.0" y="458.0" text-anchor="middle" font-size="10">0</text><rect x="112" y="433" width="42" height="42" fill="rgb(245,245,255)" stroke="white"/><text x="133.0" y="458.0" text-anchor="middle" font-size="10">0</text><rect x="154" y="433" width="42" height="42" fill="rgb(245,245,255)" stroke="white"/><text x="175.0" y="458.0" text-anchor="middle" font-size="10">0</text><rect x="196" y="433" width="42" height="42" fill="rgb(245,245,255)" stroke="white"/><text x="217.0" y="458.0" text-anchor="middle" font-size="10">0</text><rect x="238" y="433" width="42" height="42" fill="rgb(245,245,255)" stroke="white"/><text x="259.0" y="458.0" text-anchor="middle" font-size="10">0</text><rect x="280" y="433" width="42" height="42" fill="rgb(58,58,255)" stroke="white"/><text x="301.0" y="458.0" text-anchor="middle" font-size="10">986</text><rect x="322" y="433" width="42" height="42" fill="rgb(240,240,255)" stroke="white"/><text x="343.0" y="458.0" text-anchor="middle" font-size="10">23</text><rect x="364" y="433" width="42" height="42" fill="rgb(245,245,255)" stroke="white"/><text x="385.0" y="458.0" text-anchor="middle" font-size="10">0</text><rect x="406" y="433" width="42" height="42" fill="rgb(245,245,255)" stroke="white"/><text x="427.0" y="458.0" text-anchor="middle" font-size="10">0</text><rect x="448" y="433" width="42" height="42" fill="rgb(245,245,255)" stroke="white"/><text x="469.0" y="458.0" text-anchor="middle" font-size="10">0</text><text x="91.0" y="493" text-anchor="middle" font-size="11">0</text><text x="58" y="80.0" text-anchor="middle" font-size="11">0</text><text x="133.0" y="493" text-anchor="middle" font-size="11">1</text><text x="58" y="122.0" text-anchor="middle" font-size="11">1</text><text x="175.0" y="493" text-anchor="middle" font-size="11">2</text><text x="58" y="164.0" text-anchor="middle" font-size="11">2</text><text x="217.0" y="493" text-anchor="middle" font-size="11">3</text><text x="58" y="206.0" text-anchor="middle" font-size="11">3</text><text x="259.0" y="493" text-anchor="middle" font-size="11">4</text><text x="58" y="248.0" text-anchor="middle" font-size="11">4</text><text x="301.0" y="493" text-anchor="middle" font-size="11">5</text><text x="58" y="290.0" text-anchor="middle" font-size="11">5</text><text x="343.0" y="493" text-anchor="middle" font-size="11">6</text><text x="58" y="332.0" text-anchor="middle" font-size="11">6</text><text x="385.0" y="493" text-anchor="middle" font-size="11">7</text><text x="58" y="374.0" text-anchor="middle" font-size="11">7</text><text x="427.0" y="493" text-anchor="middle" font-size="11">8</text><text x="58" y="416.0" text-anchor="middle" font-size="11">8</text><text x="469.0" y="493" text-anchor="middle" font-size="11">9</text><text x="58" y="458.0" text-anchor="middle" font-size="11">9</text><text x="280.0" y="527" text-anchor="middle" font-size="13">Predicted class</text><text x="18" y="265.0" transform="rotate(-90 18 265.0)" text-anchor="middle" font-size="13">True class</text></svg>