<svg xmlns="http://www.w3.org/2000/svg" width="1200" height="560" viewBox="0 0 1200 560"><rect width="100%" height="100%" fill="white"/><line x1="85" y1="490" x2="980" y2="490" stroke="#222"/><line x1="85" y1="490" x2="85" y2="55" stroke="#222"/><line x1="85.0" y1="490" x2="85.0" y2="495" stroke="#555"/><text x="85.0" y="512" text-anchor="middle" font-size="11">0.10</text><line x1="80" y1="490.0" x2="85" y2="490.0" stroke="#555"/><text x="76" y="494.0" text-anchor="end" font-size="11">0.0107</text><line x1="85" y1="490.0" x2="980" y2="490.0" stroke="#ddd" stroke-width="0.7"/><line x1="264.0" y1="490" x2="264.0" y2="495" stroke="#555"/><text x="264.0" y="512" text-anchor="middle" font-size="11">0.28</text><line x1="80" y1="403.0" x2="85" y2="403.0" stroke="#555"/><text x="76" y="407.0" text-anchor="end" font-size="11">0.168</text><line x1="85" y1="403.0" x2="980" y2="403.0" stroke="#ddd" stroke-width="0.7"/><line x1="443.0" y1="490" x2="443.0" y2="495" stroke="#555"/><text x="443.0" y="512" text-anchor="middle" font-size="11">0.46</text><line x1="80" y1="316.0" x2="85" y2="316.0" stroke="#555"/><text x="76" y="320.0" text-anchor="end" font-size="11">0.326</text><line x1="85" y1="316.0" x2="980" y2="316.0" stroke="#ddd" stroke-width="0.7"/><line x1="622.0" y1="490" x2="622.0" y2="495" stroke="#555"/><text x="622.0" y="512" text-anchor="middle" font-size="11">0.64</text><line x1="80" y1="229.0" x2="85" y2="229.0" stroke="#555"/><text x="76" y="233.0" text-anchor="end" font-size="11">0.483</text><line x1="85" y1="229.0" x2="980" y2="229.0" stroke="#ddd" stroke-width="0.7"/><line x1="801.0" y1="490" x2="801.0" y2="495" stroke="#555"/><text x="801.0" y="512" text-anchor="middle" font-size="11">0.82</text><line x1="80" y1="142.0" x2="85" y2="142.0" stroke="#555"/><text x="76" y="146.0" text-anchor="end" font-size="11">0.641</text><line x1="85" y1="142.0" x2="980" y2="142.0" stroke="#ddd" stroke-width="0.7"/><line x1="980.0" y1="490" x2="980.0" y2="495" stroke="#555"/><text x="980.0" y="512" text-anchor="middle" font-size="11">1.00</text><line x1="80" y1="55.0" x2="85" y2="55.0" stroke="#555"/><text x="76" y="59.0" text-anchor="end" font-size="11">0.798</text><line x1="85" y1="55.0" x2="980" y2="55.0" stroke="#ddd" stroke-width="0.7"/><polyline points="85.0,459.2 184.4,268.8 283.9,202.5 383.3,166.0 482.8,149.4 582.2,148.9 681.7,139.3 781.1,153.4 880.6,148.6 980.0,196.2" fill="none" stroke="#1f77b4" stroke-width="2"/><circle cx="85.0" cy="459.2" r="2.5" fill="#1f77b4"/><circle cx="184.4" cy="268.8" r="2.5" fill="#1f77b4"/><circle cx="283.9" cy="202.5" r="2.5" fill="#1f77b4"/><circle cx="383.3" cy="166.0" r="2.5" fill="#1f77b4"/><circle cx="482.8" cy="149.4" r="2.5" fill="#1f77b4"/><circle cx="582.2" cy="148.9" r="2.5" fill="#1f77b4"/><circle cx="681.7" cy="139.3" r="2.5" fill="#1f77b4"/><circle cx="781.1" cy="153.4" r="2.5" fill="#1f77b4"/><circle cx="880.6" cy="148.6" r="2.5" fill="#1f77b4"/><circle cx="980.0" cy="196.2" r="2.5" fill="#1f77b4"/><line x1="998" y1="75" x2="1022" y2="75" stroke="#1f77b4" stroke-width="3"/><text x="1028" y="79" font-size="10">p8_refdiag_q_power_t42_r42</text><polyline points="85.0,452.1 184.4,325.8 283.9,206.0 383.3,136.3 482.8,99.4 582.2,102.0 681.7,98.4 781.1,97.1 880.6,93.2 980.0,155.5" fill="none" stroke="#d62728" stroke-width="2"/><circle cx="85.0" cy="452.1" r="2.5" fill="#d62728"/><circle cx="184.4" cy="325.8" r="2.5" fill="#d62728"/><circle cx="283.9" cy="206.0" r="2.5" fill="#d62728"/><circle cx="383.3" cy="136.3" r="2.5" fill="#d62728"/><circle cx="482.8" cy="99.4" r="2.5" fill="#d62728"/><circle cx="582.2" cy="102.0" r="2.5" fill="#d62728"/><circle cx="681.7" cy="98.4" r="2.5" fill="#d62728"/><circle cx="781.1" cy="97.1" r="2.5" fill="#d62728"/><circle cx="880.6" cy="93.2" r="2.5" fill="#d62728"/><circle cx="980.0" cy="155.5" r="2.5" fill="#d62728"/><line x1="998" y1="95" x2="1022" y2="95" stroke="#d62728" stroke-width="3"/><text x="1028" y="99" font-size="10">p8_strong_q_power_t42_r42</text><polyline points="85.0,460.0 184.4,394.8 283.9,263.6 383.3,176.0 482.8,130.1 582.2,122.1 681.7,101.5 781.1,91.9 880.6,85.0 980.0,103.2" fill="none" stroke="#2ca02c" stroke-width="2"/><circle cx="85.0" cy="460.0" r="2.5" fill="#2ca02c"/><circle cx="184.4" cy="394.8" r="2.5" fill="#2ca02c"/><circle cx="283.9" cy="263.6" r="2.5" fill="#2ca02c"/><circle cx="383.3" cy="176.0" r="2.5" fill="#2ca02c"/><circle cx="482.8" cy="130.1" r="2.5" fill="#2ca02c"/><circle cx="582.2" cy="122.1" r="2.5" fill="#2ca02c"/><circle cx="681.7" cy="101.5" r="2.5" fill="#2ca02c"/><circle cx="781.1" cy="91.9" r="2.5" fill="#2ca02c"/><circle cx="880.6" cy="85.0" r="2.5" fill="#2ca02c"/><circle cx="980.0" cy="103.2" r="2.5" fill="#2ca02c"/><line x1="998" y1="115" x2="1022" y2="115" stroke="#2ca02c" stroke-width="3"/><text x="1028" y="119" font-size="10">p8_freeze_q_power_t42_r42</text><text x="532.5" y="540" text-anchor="middle" font-size="14">Retained rank ratio</text><text x="20" y="272.5" transform="rotate(-90 20 272.5)" text-anchor="middle" font-size="14">Macro-F1</text><text x="532.5" y="26" text-anchor="middle" font-size="17" font-weight="bold">Macro-F1 vs retained rank</text></svg>